<?xml version="1.0" encoding="UTF-8" standalone="no"?>
<!DOCTYPE svg PUBLIC "-//W3C//DTD SVG 1.1//EN"
 "http://www.w3.org/Graphics/SVG/1.1/DTD/svg11.dtd">
<!-- Generated by graphviz version 2.40.1 (20161225.0304)
 -->
<!-- Title: G Pages: 1 -->
<svg width="705pt" height="160pt"
 viewBox="0.00 0.00 704.98 159.80" xmlns="http://www.w3.org/2000/svg" xmlns:xlink="http://www.w3.org/1999/xlink">
<g id="graph0" class="graph" transform="scale(1 1) rotate(0) translate(4 155.8)">
<title>G</title>
<polygon fill="#ffffff" stroke="transparent" points="-4,4 -4,-155.8 700.984,-155.8 700.984,4 -4,4"/>
<text text-anchor="middle" x="348.492" y="-8.2" font-family="Times,serif" font-size="14.00" fill="#000000">General Flow&#45;Chart</text>
<!-- Line Patrol -->
<g id="node1" class="node">
<title>Line Patrol</title>
<polygon fill="none" stroke="#00ff00" points="78.3962,-97.8 .2006,-97.8 .2006,-61.8 78.3962,-61.8 78.3962,-97.8"/>
<text text-anchor="middle" x="39.2984" y="-75.6" font-family="Times,serif" font-size="14.00" fill="#000000">Line Patrol</text>
</g>
<!-- Cross Bridge -->
<g id="node2" class="node">
<title>Cross Bridge</title>
<polygon fill="none" stroke="#0000ff" points="438.6713,-151.8 348.6911,-151.8 348.6911,-115.8 438.6713,-115.8 438.6713,-151.8"/>
<text text-anchor="middle" x="393.6812" y="-129.6" font-family="Times,serif" font-size="14.00" fill="#000000">Cross Bridge</text>
</g>
<!-- Line Patrol&#45;&gt;Cross Bridge -->
<g id="edge1" class="edge">
<title>Line Patrol&#45;&gt;Cross Bridge</title>
<path fill="none" stroke="#000000" d="M78.6832,-95.6343C84.6168,-97.6097 90.7182,-99.4176 96.5968,-100.8 179.6884,-120.3398 278.6493,-128.3936 338.7843,-131.6547"/>
<polygon fill="#000000" stroke="#000000" points="338.6531,-135.1525 348.8205,-132.1739 339.0147,-128.1619 338.6531,-135.1525"/>
<text text-anchor="middle" x="200.0799" y="-133" font-family="Times,serif" font-size="14.00" fill="#000000">no line &amp; no path color signal</text>
</g>
<!-- Stop -->
<g id="node4" class="node">
<title>Stop</title>
<polygon fill="none" stroke="#ff0000" points="420.6812,-97.8 366.6812,-97.8 366.6812,-61.8 420.6812,-61.8 420.6812,-97.8"/>
<text text-anchor="middle" x="393.6812" y="-75.6" font-family="Times,serif" font-size="14.00" fill="#000000">Stop</text>
</g>
<!-- Line Patrol&#45;&gt;Stop -->
<g id="edge2" class="edge">
<title>Line Patrol&#45;&gt;Stop</title>
<path fill="none" stroke="#000000" d="M78.5776,-79.8C147.3435,-79.8 288.6332,-79.8 356.1489,-79.8"/>
<polygon fill="#000000" stroke="#000000" points="356.329,-83.3001 366.329,-79.8 356.3289,-76.3001 356.329,-83.3001"/>
<text text-anchor="middle" x="200.0799" y="-84" font-family="Times,serif" font-size="14.00" fill="#000000">no line &gt; 5s &amp; have path color signal</text>
</g>
<!-- Cross Gate -->
<g id="node3" class="node">
<title>Cross Gate</title>
<polygon fill="none" stroke="#a020f0" points="696.8906,-60.8 619.2646,-60.8 619.2646,-24.8 696.8906,-24.8 696.8906,-60.8"/>
<text text-anchor="middle" x="658.0776" y="-38.6" font-family="Times,serif" font-size="14.00" fill="#000000">Cross Gate</text>
</g>
<!-- Cross Bridge&#45;&gt;Cross Gate -->
<g id="edge3" class="edge">
<title>Cross Bridge&#45;&gt;Cross Gate</title>
<path fill="none" stroke="#000000" d="M438.5324,-118.3631C485.9477,-102.0437 560.4978,-76.385 609.3366,-59.5757"/>
<polygon fill="#000000" stroke="#000000" points="610.7307,-62.7974 619.0472,-56.2335 608.4525,-56.1785 610.7307,-62.7974"/>
<text text-anchor="middle" x="542.4853" y="-105" font-family="Times,serif" font-size="14.00" fill="#000000">&#39;beacon&#39; after bridge</text>
</g>
<!-- Cross Gate&#45;&gt;Line Patrol -->
<g id="edge4" class="edge">
<title>Cross Gate&#45;&gt;Line Patrol</title>
<path fill="none" stroke="#000000" d="M619.0526,-41.0153C580.2133,-39.3345 518.9011,-36.9387 465.7994,-36 401.7043,-34.867 385.4783,-31.0705 321.563,-36 239.4079,-42.3362 144.9888,-58.8991 88.8354,-69.744"/>
<polygon fill="#000000" stroke="#000000" points="87.9529,-66.3501 78.8072,-71.6987 89.2922,-73.2208 87.9529,-66.3501"/>
<text text-anchor="middle" x="393.6812" y="-41" font-family="Times,serif" font-size="14.00" fill="#000000">have path direction signal</text>
</g>
</g>
</svg>
