<?xml version="1.0" encoding="UTF-8" standalone="no"?>
<!DOCTYPE svg PUBLIC "-//W3C//DTD SVG 1.1//EN"
 "http://www.w3.org/Graphics/SVG/1.1/DTD/svg11.dtd">
<!-- Generated by graphviz version 2.40.1 (20161225.0304)
 -->
<!-- Title: G Pages: 1 -->
<svg width="1003pt" height="573pt"
 viewBox="0.00 0.00 1002.74 573.20" xmlns="http://www.w3.org/2000/svg" xmlns:xlink="http://www.w3.org/1999/xlink">
<g id="graph0" class="graph" transform="scale(1 1) rotate(0) translate(4 569.2)">
<title>G</title>
<polygon fill="#ffffff" stroke="transparent" points="-4,4 -4,-569.2 998.7444,-569.2 998.7444,4 -4,4"/>
<g id="clust1" class="cluster">
<title>cluster0</title>
<polygon fill="none" stroke="#00ff00" points="8,-65 8,-557.2 897,-557.2 897,-65 8,-65"/>
<text text-anchor="middle" x="452.5" y="-540.6" font-family="Times,serif" font-size="14.00" fill="#000000">Line Patrol</text>
</g>
<!-- find line or not -->
<g id="node1" class="node">
<title>find line or not</title>
<polygon fill="none" stroke="#000000" points="433.599,-524.4 334.401,-524.4 334.401,-488.4 433.599,-488.4 433.599,-524.4"/>
<text text-anchor="middle" x="384" y="-502.2" font-family="Times,serif" font-size="14.00" fill="#000000">find line or not</text>
</g>
<!-- recognise orange box &amp; not feed -->
<g id="node2" class="node">
<title>recognise orange box &amp; not feed</title>
<polygon fill="none" stroke="#000000" points="364.6004,-397.6 165.3996,-397.6 165.3996,-361.6 364.6004,-361.6 364.6004,-397.6"/>
<text text-anchor="middle" x="265" y="-375.4" font-family="Times,serif" font-size="14.00" fill="#000000">recognise orange box &amp; not feed</text>
</g>
<!-- find line or not&#45;&gt;recognise orange box &amp; not feed -->
<g id="edge1" class="edge">
<title>find line or not&#45;&gt;recognise orange box &amp; not feed</title>
<path fill="none" stroke="#000000" d="M366.9502,-488.2327C346.5375,-466.482 312.2159,-429.9108 289.0984,-405.2779"/>
<polygon fill="#000000" stroke="#000000" points="291.4136,-402.6303 282.0182,-397.7336 286.3093,-407.4206 291.4136,-402.6303"/>
<text text-anchor="middle" x="340.8829" y="-438.8" font-family="Times,serif" font-size="14.00" fill="#000000">Yes</text>
</g>
<!-- lost count &gt; 5 -->
<g id="node5" class="node">
<title>lost count &gt; 5</title>
<polygon fill="none" stroke="#000000" points="577.226,-397.6 484.774,-397.6 484.774,-361.6 577.226,-361.6 577.226,-397.6"/>
<text text-anchor="middle" x="531" y="-375.4" font-family="Times,serif" font-size="14.00" fill="#000000">lost count &gt; 5</text>
</g>
<!-- find line or not&#45;&gt;lost count &gt; 5 -->
<g id="edge6" class="edge">
<title>find line or not&#45;&gt;lost count &gt; 5</title>
<path fill="none" stroke="#000000" d="M407.6481,-488.3903C414.9022,-482.7334 422.8532,-476.3972 430,-470.4 455.6722,-448.8573 483.9713,-423.2465 504.0669,-404.7254"/>
<polygon fill="#000000" stroke="#000000" points="506.6441,-407.1093 511.6105,-397.7506 501.8919,-401.9695 506.6441,-407.1093"/>
<text text-anchor="middle" x="478.5533" y="-438.8" font-family="Times,serif" font-size="14.00" fill="#000000">No</text>
</g>
<!-- send feeding command -->
<g id="node3" class="node">
<title>send feeding command</title>
<ellipse fill="none" stroke="#000000" cx="117" cy="-252.8" rx="100.7094" ry="18"/>
<text text-anchor="middle" x="117" y="-248.6" font-family="Times,serif" font-size="14.00" fill="#000000">send feeding command</text>
</g>
<!-- recognise orange box &amp; not feed&#45;&gt;send feeding command -->
<g id="edge2" class="edge">
<title>recognise orange box &amp; not feed&#45;&gt;send feeding command</title>
<path fill="none" stroke="#000000" d="M243.7952,-361.4327C217.9321,-339.2743 174.1162,-301.7347 145.3693,-277.1056"/>
<polygon fill="#000000" stroke="#000000" points="147.5595,-274.3732 137.6883,-270.5248 143.0051,-279.689 147.5595,-274.3732"/>
<text text-anchor="middle" x="208.8829" y="-312" font-family="Times,serif" font-size="14.00" fill="#000000">Yes</text>
</g>
<!-- send turning command -->
<g id="node4" class="node">
<title>send turning command</title>
<ellipse fill="none" stroke="#000000" cx="335" cy="-252.8" rx="99.5868" ry="18"/>
<text text-anchor="middle" x="335" y="-248.6" font-family="Times,serif" font-size="14.00" fill="#000000">send turning command</text>
</g>
<!-- recognise orange box &amp; not feed&#45;&gt;send turning command -->
<g id="edge3" class="edge">
<title>recognise orange box &amp; not feed&#45;&gt;send turning command</title>
<path fill="none" stroke="#000000" d="M275.0293,-361.4327C286.8289,-340.0586 306.5292,-304.3729 320.1122,-279.7681"/>
<polygon fill="#000000" stroke="#000000" points="323.2204,-281.3798 324.9893,-270.9336 317.0922,-277.9967 323.2204,-281.3798"/>
<text text-anchor="middle" x="311.5533" y="-312" font-family="Times,serif" font-size="14.00" fill="#000000">No</text>
</g>
<!-- send feeding command&#45;&gt;find line or not -->
<g id="edge4" class="edge">
<title>send feeding command&#45;&gt;find line or not</title>
<path fill="none" stroke="#000000" d="M126.3944,-270.8647C131.9858,-283.2745 138,-300.3148 138,-316.2 138,-443 138,-443 138,-443 138,-481.3316 251.4164,-496.8389 324.2295,-502.8449"/>
<polygon fill="#000000" stroke="#000000" points="323.9745,-506.3355 334.2182,-503.6306 324.5236,-499.3571 323.9745,-506.3355"/>
</g>
<!-- send turning command&#45;&gt;find line or not -->
<g id="edge5" class="edge">
<title>send turning command&#45;&gt;find line or not</title>
<path fill="none" stroke="#000000" d="M358.6388,-270.3512C371.1691,-281.8018 384,-297.9764 384,-316.2 384,-443 384,-443 384,-443 384,-454.4747 384,-467.1177 384,-478.0745"/>
<polygon fill="#000000" stroke="#000000" points="380.5001,-478.3635 384,-488.3635 387.5001,-478.3636 380.5001,-478.3635"/>
</g>
<!-- find colored line or not -->
<g id="node6" class="node">
<title>find colored line or not</title>
<polygon fill="none" stroke="#000000" points="888.5786,-270.8 743.4214,-270.8 743.4214,-234.8 888.5786,-234.8 888.5786,-270.8"/>
<text text-anchor="middle" x="816" y="-248.6" font-family="Times,serif" font-size="14.00" fill="#000000">find colored line or not</text>
</g>
<!-- lost count &gt; 5&#45;&gt;find colored line or not -->
<g id="edge8" class="edge">
<title>lost count &gt; 5&#45;&gt;find colored line or not</title>
<path fill="none" stroke="#000000" d="M525.2146,-361.4993C521.3323,-345.5145 518.9147,-322.5221 531.2342,-307.8 558.9636,-274.6627 674.8595,-279.1485 733.2808,-270.6201"/>
<polygon fill="#000000" stroke="#000000" points="733.8839,-274.0679 743.1508,-268.9323 732.7039,-267.1681 733.8839,-274.0679"/>
<text text-anchor="middle" x="541.8829" y="-312" font-family="Times,serif" font-size="14.00" fill="#000000">Yes</text>
</g>
<!-- send the same turning command -->
<g id="node7" class="node">
<title>send the same turning command</title>
<ellipse fill="none" stroke="#000000" cx="589" cy="-252.8" rx="136.0237" ry="18"/>
<text text-anchor="middle" x="589" y="-248.6" font-family="Times,serif" font-size="14.00" fill="#000000">send the same turning command</text>
</g>
<!-- lost count &gt; 5&#45;&gt;send the same turning command -->
<g id="edge7" class="edge">
<title>lost count &gt; 5&#45;&gt;send the same turning command</title>
<path fill="none" stroke="#000000" d="M539.7693,-361.3145C544.8591,-350.636 551.3591,-336.886 557,-324.6 563.7359,-309.9292 571.0791,-293.4865 577.0302,-280.0417"/>
<polygon fill="#000000" stroke="#000000" points="580.2514,-281.4114 581.0889,-270.8497 573.8478,-278.5839 580.2514,-281.4114"/>
<text text-anchor="middle" x="572.5533" y="-312" font-family="Times,serif" font-size="14.00" fill="#000000">No</text>
</g>
<!-- send stop command -->
<g id="node8" class="node">
<title>send stop command</title>
<ellipse fill="none" stroke="#000000" cx="801" cy="-91" rx="87.9878" ry="18"/>
<text text-anchor="middle" x="801" y="-86.8" font-family="Times,serif" font-size="14.00" fill="#000000">send stop command</text>
</g>
<!-- find colored line or not&#45;&gt;send stop command -->
<g id="edge10" class="edge">
<title>find colored line or not&#45;&gt;send stop command</title>
<path fill="none" stroke="#000000" d="M814.3085,-234.554C811.7089,-206.5137 806.7106,-152.5988 803.6342,-119.4143"/>
<polygon fill="#000000" stroke="#000000" points="807.1166,-119.0617 802.7084,-109.4276 800.1465,-119.708 807.1166,-119.0617"/>
<text text-anchor="middle" x="819.8829" y="-159.8" font-family="Times,serif" font-size="14.00" fill="#000000">Yes</text>
</g>
<!-- Cross Bridge -->
<g id="node10" class="node">
<title>Cross Bridge</title>
<polygon fill="none" stroke="#0000ff" points="994.9901,-182 905.0099,-182 905.0099,-146 994.9901,-146 994.9901,-182"/>
<text text-anchor="middle" x="950" y="-159.8" font-family="Times,serif" font-size="14.00" fill="#000000">Cross Bridge</text>
</g>
<!-- find colored line or not&#45;&gt;Cross Bridge -->
<g id="edge12" class="edge">
<title>find colored line or not&#45;&gt;Cross Bridge</title>
<path fill="none" stroke="#000000" d="M843.4403,-234.6157C863.8543,-221.0876 891.9021,-202.5007 914.0982,-187.7917"/>
<polygon fill="#000000" stroke="#000000" points="916.1941,-190.6016 922.5964,-182.16 912.3272,-184.7665 916.1941,-190.6016"/>
<text text-anchor="middle" x="902" y="-204.2" font-family="Times,serif" font-size="14.00" fill="#000000">否</text>
</g>
<!-- send the same turning command&#45;&gt;find line or not -->
<g id="edge9" class="edge">
<title>send the same turning command&#45;&gt;find line or not</title>
<path fill="none" stroke="#000000" d="M514.1988,-267.9706C470.9454,-278.9688 425,-295.5188 425,-316.2 425,-443 425,-443 425,-443 425,-456.6528 418.2131,-469.691 410.1618,-480.3546"/>
<polygon fill="#000000" stroke="#000000" points="407.2143,-478.4269 403.5394,-488.364 412.6091,-482.8875 407.2143,-478.4269"/>
</g>
<!-- Stop -->
<g id="node9" class="node">
<title>Stop</title>
<polygon fill="none" stroke="#ff0000" points="828,-36 774,-36 774,0 828,0 828,-36"/>
<text text-anchor="middle" x="801" y="-13.8" font-family="Times,serif" font-size="14.00" fill="#000000">Stop</text>
</g>
<!-- send stop command&#45;&gt;Stop -->
<g id="edge11" class="edge">
<title>send stop command&#45;&gt;Stop</title>
<path fill="none" stroke="#000000" d="M801,-72.9551C801,-64.8828 801,-55.1764 801,-46.1817"/>
<polygon fill="#000000" stroke="#000000" points="804.5001,-46.0903 801,-36.0904 797.5001,-46.0904 804.5001,-46.0903"/>
</g>
</g>
</svg>
