<?xml version="1.0" encoding="UTF-8" standalone="no"?>
<!DOCTYPE svg PUBLIC "-//W3C//DTD SVG 1.1//EN"
 "http://www.w3.org/Graphics/SVG/1.1/DTD/svg11.dtd">
<!-- Generated by graphviz version 2.40.1 (20161225.0304)
 -->
<!-- Title: G Pages: 1 -->
<svg width="2315pt" height="1441pt"
 viewBox="0.00 0.00 2315.00 1440.60" xmlns="http://www.w3.org/2000/svg" xmlns:xlink="http://www.w3.org/1999/xlink">
<g id="graph0" class="graph" transform="scale(1 1) rotate(0) translate(4 1436.6)">
<title>G</title>
<polygon fill="#ffffff" stroke="transparent" points="-4,4 -4,-1436.6 2311,-1436.6 2311,4 -4,4"/>
<g id="clust1" class="cluster">
<title>cluster0</title>
<polygon fill="none" stroke="#0000ff" points="298,-873.8 298,-1369.6 828,-1369.6 828,-873.8 298,-873.8"/>
<text text-anchor="middle" x="563" y="-1353" font-family="Times,serif" font-size="14.00" fill="#000000">Line_patrol 1</text>
</g>
<g id="clust2" class="cluster">
<title>cluster2</title>
<polygon fill="none" stroke="#0000ff" points="432,-169.8 432,-854.8 957,-854.8 957,-169.8 432,-169.8"/>
<text text-anchor="middle" x="694.5" y="-838.2" font-family="Times,serif" font-size="14.00" fill="#000000">Follow the x direction</text>
</g>
<g id="clust3" class="cluster">
<title>cluster3</title>
<polygon fill="none" stroke="#0000ff" points="10,-281.4 10,-743.2 424,-743.2 424,-281.4 10,-281.4"/>
<text text-anchor="middle" x="217" y="-726.6" font-family="Times,serif" font-size="14.00" fill="#000000">Posture adjustment before bridge &amp; gate</text>
</g>
<g id="clust4" class="cluster">
<title>cluster4</title>
<polygon fill="none" stroke="#0000ff" points="965,-666.4 965,-1220 1385,-1220 1385,-666.4 965,-666.4"/>
<text text-anchor="middle" x="1175" y="-1203.4" font-family="Times,serif" font-size="14.00" fill="#000000">Cross bridge</text>
</g>
<g id="clust5" class="cluster">
<title>cluster5</title>
<polygon fill="none" stroke="#0000ff" points="965,-281.4 965,-542.8 1281,-542.8 1281,-281.4 965,-281.4"/>
<text text-anchor="middle" x="1123" y="-526.2" font-family="Times,serif" font-size="14.00" fill="#000000">Cross gate</text>
</g>
<g id="clust6" class="cluster">
<title>cluster6</title>
<polygon fill="none" stroke="#0000ff" points="1271,-8 1271,-246.6 1817,-246.6 1817,-8 1271,-8"/>
<text text-anchor="middle" x="1544" y="-230" font-family="Times,serif" font-size="14.00" fill="#000000">Line patrol 2</text>
</g>
<g id="clust7" class="cluster">
<title>cluster7</title>
<polygon fill="none" stroke="#0000ff" points="1825,-81 1825,-358.2 2299,-358.2 2299,-81 1825,-81"/>
<text text-anchor="middle" x="2062" y="-341.6" font-family="Times,serif" font-size="14.00" fill="#000000">Color line patrol</text>
</g>
<!-- Start -->
<g id="node1" class="node">
<title>Start</title>
<polygon fill="#00ff00" stroke="transparent" points="590,-1432.6 536,-1432.6 536,-1396.6 590,-1396.6 590,-1432.6"/>
<text text-anchor="middle" x="563" y="-1410.4" font-family="Times,serif" font-size="14.00" fill="#000000">Start</text>
</g>
<!-- recognise the path angle and send to chassis to update the speed -->
<g id="node2" class="node">
<title>recognise the path angle and send to chassis to update the speed</title>
<ellipse fill="none" stroke="#000000" cx="563" cy="-1318.8" rx="257.4596" ry="18"/>
<text text-anchor="middle" x="563" y="-1314.6" font-family="Times,serif" font-size="14.00" fill="#000000">recognise the path angle and send to chassis to update the speed</text>
</g>
<!-- Start&#45;&gt;recognise the path angle and send to chassis to update the speed -->
<g id="edge24" class="edge">
<title>Start&#45;&gt;recognise the path angle and send to chassis to update the speed</title>
<path fill="none" stroke="#000000" d="M563,-1396.5808C563,-1382.7527 563,-1363.393 563,-1347.4477"/>
<polygon fill="#000000" stroke="#000000" points="566.5001,-1347.0641 563,-1337.0642 559.5001,-1347.0642 566.5001,-1347.0641"/>
</g>
<!-- path camera recognises orange box -->
<g id="node3" class="node">
<title>path camera recognises orange box</title>
<ellipse fill="none" stroke="#000000" cx="564" cy="-1169.2" rx="146.918" ry="18"/>
<text text-anchor="middle" x="564" y="-1165" font-family="Times,serif" font-size="14.00" fill="#000000">path camera recognises orange box</text>
</g>
<!-- recognise the path angle and send to chassis to update the speed&#45;&gt;path camera recognises orange box -->
<g id="edge1" class="edge">
<title>recognise the path angle and send to chassis to update the speed&#45;&gt;path camera recognises orange box</title>
<path fill="none" stroke="#000000" d="M561.7501,-1300.4769C561.0835,-1289.7858 560.3335,-1276.0358 560,-1263.8 559.3907,-1241.4432 560.5589,-1216.13 561.7873,-1197.3175"/>
<polygon fill="#000000" stroke="#000000" points="565.2795,-1197.5494 562.4847,-1187.3298 558.2965,-1197.0617 565.2795,-1197.5494"/>
</g>
<!-- path camera recognises orange box&#45;&gt;recognise the path angle and send to chassis to update the speed -->
<g id="edge2" class="edge">
<title>path camera recognises orange box&#45;&gt;recognise the path angle and send to chassis to update the speed</title>
<path fill="none" stroke="#000000" d="M564.9787,-1187.3087C566.0385,-1209.7341 567.4018,-1249.0989 566,-1282.8 565.8988,-1285.2321 565.7594,-1287.7542 565.5956,-1290.2832"/>
<polygon fill="#000000" stroke="#000000" points="562.0868,-1290.2683 564.8209,-1300.5043 569.0668,-1290.7974 562.0868,-1290.2683"/>
<text text-anchor="middle" x="575.5533" y="-1251.2" font-family="Times,serif" font-size="14.00" fill="#000000">No</text>
</g>
<!-- start feeder -->
<g id="node4" class="node">
<title>start feeder</title>
<ellipse fill="none" stroke="#000000" cx="564" cy="-1042.4" rx="54.3875" ry="18"/>
<text text-anchor="middle" x="564" y="-1038.2" font-family="Times,serif" font-size="14.00" fill="#000000">start feeder</text>
</g>
<!-- path camera recognises orange box&#45;&gt;start feeder -->
<g id="edge3" class="edge">
<title>path camera recognises orange box&#45;&gt;start feeder</title>
<path fill="none" stroke="#000000" d="M564,-1151.0327C564,-1130.0352 564,-1095.2261 564,-1070.679"/>
<polygon fill="#000000" stroke="#000000" points="567.5001,-1070.5336 564,-1060.5336 560.5001,-1070.5337 567.5001,-1070.5336"/>
<text text-anchor="middle" x="574.8829" y="-1101.6" font-family="Times,serif" font-size="14.00" fill="#000000">Yes</text>
</g>
<!-- feeder rocever &amp; drive ahead -->
<g id="node5" class="node">
<title>feeder rocever &amp; drive ahead</title>
<ellipse fill="none" stroke="#000000" cx="564" cy="-899.8" rx="123.7596" ry="18"/>
<text text-anchor="middle" x="564" y="-895.6" font-family="Times,serif" font-size="14.00" fill="#000000">feeder rocever &amp; drive ahead</text>
</g>
<!-- start feeder&#45;&gt;feeder rocever &amp; drive ahead -->
<g id="edge4" class="edge">
<title>start feeder&#45;&gt;feeder rocever &amp; drive ahead</title>
<path fill="none" stroke="#000000" d="M564,-1024.3396C564,-1000.1501 564,-956.966 564,-928.3488"/>
<polygon fill="#000000" stroke="#000000" points="567.5001,-928.1641 564,-918.1642 560.5001,-928.1642 567.5001,-928.1641"/>
<text text-anchor="middle" x="629.9036" y="-974.8" font-family="Times,serif" font-size="14.00" fill="#000000">no path direction signal</text>
</g>
<!-- left camera recognises bridge -->
<g id="node6" class="node">
<title>left camera recognises bridge</title>
<ellipse fill="none" stroke="#000000" cx="564" cy="-804" rx="124.3954" ry="18"/>
<text text-anchor="middle" x="564" y="-799.8" font-family="Times,serif" font-size="14.00" fill="#000000">left camera recognises bridge</text>
</g>
<!-- feeder rocever &amp; drive ahead&#45;&gt;left camera recognises bridge -->
<g id="edge5" class="edge">
<title>feeder rocever &amp; drive ahead&#45;&gt;left camera recognises bridge</title>
<path fill="none" stroke="#000000" d="M564,-881.7808C564,-867.9527 564,-848.593 564,-832.6477"/>
<polygon fill="#000000" stroke="#000000" points="567.5001,-832.2641 564,-822.2642 560.5001,-832.2642 567.5001,-832.2641"/>
</g>
<!-- recognise the angle between car and x direction -->
<g id="node7" class="node">
<title>recognise the angle between car and x direction</title>
<ellipse fill="none" stroke="#000000" cx="754" cy="-603.6" rx="194.9118" ry="18"/>
<text text-anchor="middle" x="754" y="-599.4" font-family="Times,serif" font-size="14.00" fill="#000000">recognise the angle between car and x direction</text>
</g>
<!-- left camera recognises bridge&#45;&gt;recognise the angle between car and x direction -->
<g id="edge26" class="edge">
<title>left camera recognises bridge&#45;&gt;recognise the angle between car and x direction</title>
<path fill="none" stroke="#000000" d="M581.1963,-785.8624C615.18,-750.0186 691.0114,-670.0364 729.9347,-628.9826"/>
<polygon fill="#000000" stroke="#000000" points="732.639,-631.2172 736.9794,-621.5522 727.5592,-626.401 732.639,-631.2172"/>
<text text-anchor="middle" x="729.5684" y="-688.2" font-family="Times,serif" font-size="14.00" fill="#000000">Not detected</text>
</g>
<!-- identify the deviation of item in left camera field -->
<g id="node10" class="node">
<title>identify the deviation of item in left camera field</title>
<ellipse fill="none" stroke="#000000" cx="217" cy="-692.4" rx="199.0743" ry="18"/>
<text text-anchor="middle" x="217" y="-688.2" font-family="Times,serif" font-size="14.00" fill="#000000">identify the deviation of item in left camera field</text>
</g>
<!-- left camera recognises bridge&#45;&gt;identify the deviation of item in left camera field -->
<g id="edge32" class="edge">
<title>left camera recognises bridge&#45;&gt;identify the deviation of item in left camera field</title>
<path fill="none" stroke="#000000" d="M491.4677,-789.2553C465.6178,-783.413 436.4316,-776.1394 410.2538,-768 360.4618,-752.5184 305.1995,-730.3775 266.568,-714.0558"/>
<polygon fill="#000000" stroke="#000000" points="267.6905,-710.7299 257.1182,-710.0392 264.9522,-717.1721 267.6905,-710.7299"/>
<text text-anchor="middle" x="435.8731" y="-755.4" font-family="Times,serif" font-size="14.00" fill="#000000">Detected</text>
</g>
<!-- send angle to chassis to update the speed -->
<g id="node8" class="node">
<title>send angle to chassis to update the speed</title>
<ellipse fill="none" stroke="#000000" cx="608" cy="-403.2" rx="168.4068" ry="18"/>
<text text-anchor="middle" x="608" y="-399" font-family="Times,serif" font-size="14.00" fill="#000000">send angle to chassis to update the speed</text>
</g>
<!-- recognise the angle between car and x direction&#45;&gt;send angle to chassis to update the speed -->
<g id="edge6" class="edge">
<title>recognise the angle between car and x direction&#45;&gt;send angle to chassis to update the speed</title>
<path fill="none" stroke="#000000" d="M740.786,-585.4624C714.8351,-549.8422 657.1274,-470.6324 627.0552,-429.3552"/>
<polygon fill="#000000" stroke="#000000" points="629.7963,-427.1738 621.079,-421.1522 624.1386,-431.2957 629.7963,-427.1738"/>
</g>
<!-- turn left -->
<g id="node11" class="node">
<title>turn left</title>
<ellipse fill="none" stroke="#000000" cx="222" cy="-492" rx="41.7504" ry="18"/>
<text text-anchor="middle" x="222" y="-487.8" font-family="Times,serif" font-size="14.00" fill="#000000">turn left</text>
</g>
<!-- recognise the angle between car and x direction&#45;&gt;turn left -->
<g id="edge10" class="edge">
<title>recognise the angle between car and x direction&#45;&gt;turn left</title>
<path fill="none" stroke="#000000" d="M660.2776,-587.7852C625.1654,-581.7022 584.9511,-574.547 548.4768,-567.6 494.7742,-557.3717 481.3216,-554.8579 428,-542.8 372.7363,-530.3029 309.5129,-514.4837 267.8461,-503.8463"/>
<polygon fill="#000000" stroke="#000000" points="268.5513,-500.4141 257.9958,-501.3255 266.8158,-507.1955 268.5513,-500.4141"/>
<text text-anchor="middle" x="612.7616" y="-555" font-family="Times,serif" font-size="14.00" fill="#000000">do not aim &#45;z direction</text>
</g>
<!-- drive ahead following &#45;z direction -->
<g id="node13" class="node">
<title>drive ahead following &#45;z direction</title>
<ellipse fill="none" stroke="#000000" cx="1128" cy="-1169.2" rx="142.3598" ry="18"/>
<text text-anchor="middle" x="1128" y="-1165" font-family="Times,serif" font-size="14.00" fill="#000000">drive ahead following &#45;z direction</text>
</g>
<!-- recognise the angle between car and x direction&#45;&gt;drive ahead following &#45;z direction -->
<g id="edge30" class="edge">
<title>recognise the angle between car and x direction&#45;&gt;drive ahead following &#45;z direction</title>
<path fill="none" stroke="#000000" d="M844.0815,-619.7271C881.779,-632.1674 917,-654.0516 917,-692.4 917,-1105.8 917,-1105.8 917,-1105.8 917,-1129.2878 965.561,-1144.831 1016.0901,-1154.6466"/>
<polygon fill="#000000" stroke="#000000" points="1015.736,-1158.1409 1026.2083,-1156.534 1017.0197,-1151.2596 1015.736,-1158.1409"/>
<text text-anchor="middle" x="961.3163" y="-940" font-family="Times,serif" font-size="14.00" fill="#000000">aim &#45;z direction</text>
</g>
<!-- drive ahead following &#45;z direction 2 -->
<g id="node17" class="node">
<title>drive ahead following &#45;z direction 2</title>
<ellipse fill="none" stroke="#000000" cx="1123" cy="-492" rx="149.8453" ry="18"/>
<text text-anchor="middle" x="1123" y="-487.8" font-family="Times,serif" font-size="14.00" fill="#000000">drive ahead following &#45;z direction 2</text>
</g>
<!-- recognise the angle between car and x direction&#45;&gt;drive ahead following &#45;z direction 2 -->
<g id="edge31" class="edge">
<title>recognise the angle between car and x direction&#45;&gt;drive ahead following &#45;z direction 2</title>
<path fill="none" stroke="#000000" d="M813.4217,-586.4573C854.845,-574.4311 911.3615,-557.8714 961,-542.8 993.688,-532.8752 1029.9824,-521.5247 1059.918,-512.0737"/>
<polygon fill="#000000" stroke="#000000" points="1061.3319,-515.2976 1069.8119,-508.9462 1059.222,-508.6231 1061.3319,-515.2976"/>
<text text-anchor="middle" x="976.3163" y="-555" font-family="Times,serif" font-size="14.00" fill="#000000">aim &#45;z direction</text>
</g>
<!-- send angle to chassis to update the speed&#45;&gt;left camera recognises bridge -->
<g id="edge28" class="edge">
<title>send angle to chassis to update the speed&#45;&gt;left camera recognises bridge</title>
<path fill="none" stroke="#000000" d="M587.2925,-421.0999C554.311,-451.1431 491.1305,-515.3613 467.1704,-585.6 462.0047,-600.7432 458.9786,-607.8561 467.1704,-621.6 488.5985,-657.5513 526.7776,-631.5807 550,-666.4 571.715,-698.9591 571.4546,-745.834 568.3987,-775.5989"/>
<polygon fill="#000000" stroke="#000000" points="564.8991,-775.3866 567.1818,-785.7326 571.8492,-776.2213 564.8991,-775.3866"/>
<text text-anchor="middle" x="509.4148" y="-599.4" font-family="Times,serif" font-size="14.00" fill="#000000">Finding bridge</text>
</g>
<!-- left camera recognises gate -->
<g id="node9" class="node">
<title>left camera recognises gate</title>
<ellipse fill="none" stroke="#000000" cx="608" cy="-195.8" rx="115.7254" ry="18"/>
<text text-anchor="middle" x="608" y="-191.6" font-family="Times,serif" font-size="14.00" fill="#000000">left camera recognises gate</text>
</g>
<!-- send angle to chassis to update the speed&#45;&gt;left camera recognises gate -->
<g id="edge7" class="edge">
<title>send angle to chassis to update the speed&#45;&gt;left camera recognises gate</title>
<path fill="none" stroke="#000000" d="M608,-385.1574C608,-348.9977 608,-267.4214 608,-224.0901"/>
<polygon fill="#000000" stroke="#000000" points="611.5001,-223.9485 608,-213.9485 604.5001,-223.9486 611.5001,-223.9485"/>
<text text-anchor="middle" x="641.6308" y="-303.2" font-family="Times,serif" font-size="14.00" fill="#000000">finding gate</text>
</g>
<!-- left camera recognises gate&#45;&gt;recognise the angle between car and x direction -->
<g id="edge27" class="edge">
<title>left camera recognises gate&#45;&gt;recognise the angle between car and x direction</title>
<path fill="none" stroke="#000000" d="M692.4472,-208.1637C748.5689,-221.7121 812,-249.7719 812,-307.4 812,-492 812,-492 812,-492 812,-523.9991 792.9935,-555.9335 776.7411,-577.3913"/>
<polygon fill="#000000" stroke="#000000" points="773.9039,-575.337 770.4653,-585.3583 779.4028,-579.6686 773.9039,-575.337"/>
<text text-anchor="middle" x="847.5684" y="-399" font-family="Times,serif" font-size="14.00" fill="#000000">Not detected</text>
</g>
<!-- left camera recognises gate&#45;&gt;identify the deviation of item in left camera field -->
<g id="edge29" class="edge">
<title>left camera recognises gate&#45;&gt;identify the deviation of item in left camera field</title>
<path fill="none" stroke="#000000" d="M498.2899,-201.6451C350.6969,-211.2026 97.6174,-234.0584 19,-281.4 6.7392,-288.7832 0,-293.0878 0,-307.4 0,-603.6 0,-603.6 0,-603.6 0,-633.0015 69.0976,-657.497 129.3108,-673.2612"/>
<polygon fill="#000000" stroke="#000000" points="128.7152,-676.7216 139.2709,-675.8122 130.452,-669.9405 128.7152,-676.7216"/>
<text text-anchor="middle" x="24.8731" y="-443.4" font-family="Times,serif" font-size="14.00" fill="#000000">Detected</text>
</g>
<!-- identify the deviation of item in left camera field&#45;&gt;recognise the angle between car and x direction -->
<g id="edge25" class="edge">
<title>identify the deviation of item in left camera field&#45;&gt;recognise the angle between car and x direction</title>
<path fill="none" stroke="#000000" d="M217.1667,-674.323C218.3199,-662.5154 221.942,-647.8141 232.2312,-639.6 259.4351,-617.8824 510.2798,-624.0937 545,-621.6 564.189,-620.2218 584.3579,-618.6459 604.2853,-617.0127"/>
<polygon fill="#000000" stroke="#000000" points="604.6809,-620.492 614.3589,-616.1806 604.1047,-613.5158 604.6809,-620.492"/>
<text text-anchor="middle" x="346.8844" y="-643.8" font-family="Times,serif" font-size="14.00" fill="#000000">item out of the center area of left camera</text>
</g>
<!-- identify the deviation of item in left camera field&#45;&gt;turn left -->
<g id="edge8" class="edge">
<title>identify the deviation of item in left camera field&#45;&gt;turn left</title>
<path fill="none" stroke="#000000" d="M211.3518,-674.2808C207.2414,-660.1041 202.0304,-639.8087 199.8574,-621.6 195.6309,-586.1838 204.8135,-545.7179 212.6106,-519.5616"/>
<polygon fill="#000000" stroke="#000000" points="215.973,-520.5356 215.6077,-509.9471 209.2902,-518.4523 215.973,-520.5356"/>
<text text-anchor="middle" x="314.0713" y="-599.4" font-family="Times,serif" font-size="14.00" fill="#000000">item enters the center area of left camera</text>
</g>
<!-- recognise the angle between car and z direction -->
<g id="node12" class="node">
<title>recognise the angle between car and z direction</title>
<ellipse fill="none" stroke="#000000" cx="222" cy="-307.4" rx="194.3282" ry="18"/>
<text text-anchor="middle" x="222" y="-303.2" font-family="Times,serif" font-size="14.00" fill="#000000">recognise the angle between car and z direction</text>
</g>
<!-- turn left&#45;&gt;recognise the angle between car and z direction -->
<g id="edge9" class="edge">
<title>turn left&#45;&gt;recognise the angle between car and z direction</title>
<path fill="none" stroke="#000000" d="M222,-473.9637C222,-441.7053 222,-373.9196 222,-335.5101"/>
<polygon fill="#000000" stroke="#000000" points="225.5001,-335.5095 222,-325.5095 218.5001,-335.5096 225.5001,-335.5095"/>
</g>
<!-- path camera identify green symbol after bridge -->
<g id="node14" class="node">
<title>path camera identify green symbol after bridge</title>
<ellipse fill="none" stroke="#000000" cx="1165" cy="-1042.4" rx="192.1007" ry="18"/>
<text text-anchor="middle" x="1165" y="-1038.2" font-family="Times,serif" font-size="14.00" fill="#000000">path camera identify green symbol after bridge</text>
</g>
<!-- drive ahead following &#45;z direction&#45;&gt;path camera identify green symbol after bridge -->
<g id="edge11" class="edge">
<title>drive ahead following &#45;z direction&#45;&gt;path camera identify green symbol after bridge</title>
<path fill="none" stroke="#000000" d="M1130.8996,-1150.9811C1133.4465,-1136.3349 1137.5892,-1115.3205 1143,-1097.4 1145.7645,-1088.244 1149.4238,-1078.4818 1152.963,-1069.7623"/>
<polygon fill="#000000" stroke="#000000" points="1156.2286,-1071.025 1156.8537,-1060.4486 1149.7695,-1068.3268 1156.2286,-1071.025"/>
</g>
<!-- path camera identify green symbol after bridge&#45;&gt;drive ahead following &#45;z direction -->
<g id="edge12" class="edge">
<title>path camera identify green symbol after bridge&#45;&gt;drive ahead following &#45;z direction</title>
<path fill="none" stroke="#000000" d="M1159.9142,-1060.5164C1154.7398,-1078.8632 1146.4447,-1108.0425 1139,-1133.2 1138.2269,-1135.8124 1137.4139,-1138.5286 1136.5945,-1141.2455"/>
<polygon fill="#000000" stroke="#000000" points="1133.2181,-1140.319 1133.6586,-1150.9047 1139.9156,-1142.3548 1133.2181,-1140.319"/>
<text text-anchor="middle" x="1184.5684" y="-1101.6" font-family="Times,serif" font-size="14.00" fill="#000000">Not detected</text>
</g>
<!-- turn right -->
<g id="node15" class="node">
<title>turn right</title>
<ellipse fill="none" stroke="#000000" cx="1165" cy="-899.8" rx="47.4917" ry="18"/>
<text text-anchor="middle" x="1165" y="-895.6" font-family="Times,serif" font-size="14.00" fill="#000000">turn right</text>
</g>
<!-- path camera identify green symbol after bridge&#45;&gt;turn right -->
<g id="edge13" class="edge">
<title>path camera identify green symbol after bridge&#45;&gt;turn right</title>
<path fill="none" stroke="#000000" d="M1165,-1024.3396C1165,-1000.1501 1165,-956.966 1165,-928.3488"/>
<polygon fill="#000000" stroke="#000000" points="1168.5001,-928.1641 1165,-918.1642 1161.5001,-928.1642 1168.5001,-928.1641"/>
<text text-anchor="middle" x="1189.8731" y="-974.8" font-family="Times,serif" font-size="14.00" fill="#000000">Detected</text>
</g>
<!-- recognise the angle between car and x direction 2 -->
<g id="node16" class="node">
<title>recognise the angle between car and x direction 2</title>
<ellipse fill="none" stroke="#000000" cx="1175" cy="-692.4" rx="201.897" ry="18"/>
<text text-anchor="middle" x="1175" y="-688.2" font-family="Times,serif" font-size="14.00" fill="#000000">recognise the angle between car and x direction 2</text>
</g>
<!-- turn right&#45;&gt;recognise the angle between car and x direction 2 -->
<g id="edge14" class="edge">
<title>turn right&#45;&gt;recognise the angle between car and x direction 2</title>
<path fill="none" stroke="#000000" d="M1164.6731,-881.6525C1164.3804,-859.1806 1164.233,-819.7394 1166,-786 1167.1491,-764.059 1169.5774,-739.318 1171.6224,-720.7853"/>
<polygon fill="#000000" stroke="#000000" points="1175.1216,-720.9895 1172.7696,-710.659 1168.1661,-720.2014 1175.1216,-720.9895"/>
</g>
<!-- recognise the angle between car and x direction 2&#45;&gt;recognise the angle between car and x direction -->
<g id="edge33" class="edge">
<title>recognise the angle between car and x direction 2&#45;&gt;recognise the angle between car and x direction</title>
<path fill="none" stroke="#000000" d="M1098.9435,-675.6869C1050.8308,-665.1776 987.3091,-651.4183 931,-639.6 903.257,-633.7772 873.0365,-627.5778 845.5476,-621.9937"/>
<polygon fill="#000000" stroke="#000000" points="846.0496,-618.5243 835.5533,-619.9661 844.6578,-625.3846 846.0496,-618.5243"/>
<text text-anchor="middle" x="1046.3787" y="-643.8" font-family="Times,serif" font-size="14.00" fill="#000000">aim x direction</text>
</g>
<!-- recognise the angle between car and x direction 2&#45;&gt;turn right -->
<g id="edge15" class="edge">
<title>recognise the angle between car and x direction 2&#45;&gt;turn right</title>
<path fill="none" stroke="#000000" d="M1174.817,-710.4383C1174.3996,-741.7037 1173.0729,-807.971 1169,-863.8 1168.8224,-866.2342 1168.6067,-868.7579 1168.3686,-871.2878"/>
<polygon fill="#000000" stroke="#000000" points="1164.8587,-871.2016 1167.3032,-881.5106 1171.821,-871.9272 1164.8587,-871.2016"/>
<text text-anchor="middle" x="1233.824" y="-799.8" font-family="Times,serif" font-size="14.00" fill="#000000">do not aim x direction</text>
</g>
<!-- path camera identify the road -->
<g id="node18" class="node">
<title>path camera identify the road</title>
<ellipse fill="none" stroke="#000000" cx="1110" cy="-307.4" rx="124.3799" ry="18"/>
<text text-anchor="middle" x="1110" y="-303.2" font-family="Times,serif" font-size="14.00" fill="#000000">path camera identify the road</text>
</g>
<!-- drive ahead following &#45;z direction 2&#45;&gt;path camera identify the road -->
<g id="edge16" class="edge">
<title>drive ahead following &#45;z direction 2&#45;&gt;path camera identify the road</title>
<path fill="none" stroke="#000000" d="M1134.3974,-473.936C1146.3251,-452.7601 1162.2556,-416.5675 1154,-385.2 1149.1594,-366.8078 1138.8685,-348.1939 1129.4555,-333.7862"/>
<polygon fill="#000000" stroke="#000000" points="1132.2755,-331.7086 1123.7647,-325.3986 1126.4829,-335.6388 1132.2755,-331.7086"/>
</g>
<!-- path camera identify the road&#45;&gt;drive ahead following &#45;z direction 2 -->
<g id="edge17" class="edge">
<title>path camera identify the road&#45;&gt;drive ahead following &#45;z direction 2</title>
<path fill="none" stroke="#000000" d="M1093.9567,-325.369C1076.0862,-347.6608 1051.2438,-386.9206 1063.7026,-421.2 1069.9615,-438.4209 1082.4493,-454.3758 1094.3574,-466.7632"/>
<polygon fill="#000000" stroke="#000000" points="1092.0751,-469.4295 1101.636,-473.9945 1097.0087,-464.4636 1092.0751,-469.4295"/>
<text text-anchor="middle" x="1106.1487" y="-399" font-family="Times,serif" font-size="14.00" fill="#000000">Not detect road</text>
</g>
<!-- recognise the path angle and send to chassis to update the speed 3 -->
<g id="node19" class="node">
<title>recognise the path angle and send to chassis to update the speed 3</title>
<ellipse fill="none" stroke="#000000" cx="1544" cy="-195.8" rx="264.9452" ry="18"/>
<text text-anchor="middle" x="1544" y="-191.6" font-family="Times,serif" font-size="14.00" fill="#000000">recognise the path angle and send to chassis to update the speed 3</text>
</g>
<!-- path camera identify the road&#45;&gt;recognise the path angle and send to chassis to update the speed 3 -->
<g id="edge34" class="edge">
<title>path camera identify the road&#45;&gt;recognise the path angle and send to chassis to update the speed 3</title>
<path fill="none" stroke="#000000" d="M1104.7426,-289.1644C1102.6608,-277.7474 1102.4782,-263.5538 1111.0238,-254.6 1120.3246,-244.8549 1218.6159,-248.1286 1232,-246.6 1303.2772,-238.4594 1383.1146,-225.3865 1444.1845,-214.5412"/>
<polygon fill="#000000" stroke="#000000" points="1444.9756,-217.9554 1454.2046,-212.7519 1443.745,-211.0644 1444.9756,-217.9554"/>
<text text-anchor="middle" x="1142.4881" y="-258.8" font-family="Times,serif" font-size="14.00" fill="#000000">find at gate</text>
</g>
<!-- path camera identify the red/yellow/purple -->
<g id="node20" class="node">
<title>path camera identify the red/yellow/purple</title>
<ellipse fill="none" stroke="#000000" cx="1507" cy="-34" rx="175.8634" ry="18"/>
<text text-anchor="middle" x="1507" y="-29.8" font-family="Times,serif" font-size="14.00" fill="#000000">path camera identify the red/yellow/purple</text>
</g>
<!-- recognise the path angle and send to chassis to update the speed 3&#45;&gt;path camera identify the red/yellow/purple -->
<g id="edge18" class="edge">
<title>recognise the path angle and send to chassis to update the speed 3&#45;&gt;path camera identify the red/yellow/purple</title>
<path fill="none" stroke="#000000" d="M1537.6021,-177.6545C1532.7843,-163.4638 1526.297,-143.1621 1522,-125 1517.0923,-104.2569 1513.2325,-80.4792 1510.6579,-62.4324"/>
<polygon fill="#000000" stroke="#000000" points="1514.0906,-61.7037 1509.2577,-52.2754 1507.1562,-62.6597 1514.0906,-61.7037"/>
</g>
<!-- Path exist? -->
<g id="node23" class="node">
<title>Path exist?</title>
<ellipse fill="none" stroke="#000000" cx="1886" cy="-307.4" rx="53.2858" ry="18"/>
<text text-anchor="middle" x="1886" y="-303.2" font-family="Times,serif" font-size="14.00" fill="#000000">Path exist?</text>
</g>
<!-- recognise the path angle and send to chassis to update the speed 3&#45;&gt;Path exist? -->
<g id="edge22" class="edge">
<title>recognise the path angle and send to chassis to update the speed 3&#45;&gt;Path exist?</title>
<path fill="none" stroke="#000000" d="M1598.1422,-213.4675C1664.1002,-234.9906 1774.5238,-271.0236 1837.7114,-291.6427"/>
<polygon fill="#000000" stroke="#000000" points="1836.8406,-295.0401 1847.4331,-294.815 1839.0122,-288.3854 1836.8406,-295.0401"/>
</g>
<!-- path camera identify the red/yellow/purple&#45;&gt;recognise the path angle and send to chassis to update the speed 3 -->
<g id="edge19" class="edge">
<title>path camera identify the red/yellow/purple&#45;&gt;recognise the path angle and send to chassis to update the speed 3</title>
<path fill="none" stroke="#000000" d="M1513.3456,-52.1578C1516.231,-60.8207 1519.5413,-71.3734 1522,-81 1529.4903,-110.3272 1535.7206,-144.4512 1539.6165,-167.8266"/>
<polygon fill="#000000" stroke="#000000" points="1536.1718,-168.4497 1541.2383,-177.7545 1543.0802,-167.321 1536.1718,-168.4497"/>
<text text-anchor="middle" x="1566.5684" y="-102.8" font-family="Times,serif" font-size="14.00" fill="#000000">Not detected</text>
</g>
<!-- count down 10s and enter color line part -->
<g id="node21" class="node">
<title>count down 10s and enter color line part</title>
<ellipse fill="none" stroke="#000000" cx="2124" cy="-307.4" rx="166.6873" ry="18"/>
<text text-anchor="middle" x="2124" y="-303.2" font-family="Times,serif" font-size="14.00" fill="#000000">count down 10s and enter color line part</text>
</g>
<!-- path camera identify the red/yellow/purple&#45;&gt;count down 10s and enter color line part -->
<g id="edge35" class="edge">
<title>path camera identify the red/yellow/purple&#45;&gt;count down 10s and enter color line part</title>
<path fill="none" stroke="#000000" d="M1459.7179,-51.4187C1371.2297,-86.4279 1195.9533,-168.6552 1270,-246.6 1295.9769,-273.9444 1910.4683,-277.6731 1948,-281.4 1972.3127,-283.8142 1998.4042,-287.2189 2022.854,-290.7713"/>
<polygon fill="#000000" stroke="#000000" points="2022.454,-294.2501 2032.8575,-292.2459 2023.4748,-287.3249 2022.454,-294.2501"/>
<text text-anchor="middle" x="1313.8731" y="-147.2" font-family="Times,serif" font-size="14.00" fill="#000000">Detected</text>
</g>
<!-- path camera recognises thepath in same color -->
<g id="node22" class="node">
<title>path camera recognises thepath in same color</title>
<ellipse fill="none" stroke="#000000" cx="2062" cy="-107" rx="186.2998" ry="18"/>
<text text-anchor="middle" x="2062" y="-102.8" font-family="Times,serif" font-size="14.00" fill="#000000">path camera recognises thepath in same color</text>
</g>
<!-- count down 10s and enter color line part&#45;&gt;path camera recognises thepath in same color -->
<g id="edge20" class="edge">
<title>count down 10s and enter color line part&#45;&gt;path camera recognises thepath in same color</title>
<path fill="none" stroke="#000000" d="M2118.3886,-289.2624C2107.5341,-254.1781 2083.5967,-176.8061 2070.6763,-135.0439"/>
<polygon fill="#000000" stroke="#000000" points="2073.9427,-133.7598 2067.6434,-125.241 2067.2555,-135.8287 2073.9427,-133.7598"/>
</g>
<!-- path camera recognises thepath in same color&#45;&gt;recognise the path angle and send to chassis to update the speed 3 -->
<g id="edge21" class="edge">
<title>path camera recognises thepath in same color&#45;&gt;recognise the path angle and send to chassis to update the speed 3</title>
<path fill="none" stroke="#000000" d="M1970.3322,-122.7145C1881.273,-137.9818 1746.0582,-161.1615 1651.865,-177.3089"/>
<polygon fill="#000000" stroke="#000000" points="1651.001,-173.9058 1641.7362,-179.0452 1652.1838,-180.8052 1651.001,-173.9058"/>
</g>
<!-- Path exist?&#45;&gt;recognise the path angle and send to chassis to update the speed 3 -->
<g id="edge23" class="edge">
<title>Path exist?&#45;&gt;recognise the path angle and send to chassis to update the speed 3</title>
<path fill="none" stroke="#000000" d="M1835.5403,-301.3366C1797.4281,-295.8841 1744.1875,-286.3873 1699.2342,-271.4 1658.3862,-257.7814 1614.5053,-235.6444 1583.8551,-218.8358"/>
<polygon fill="#000000" stroke="#000000" points="1585.2284,-215.5952 1574.7858,-213.8058 1581.8333,-221.7168 1585.2284,-215.5952"/>
<text text-anchor="middle" x="1709.8829" y="-258.8" font-family="Times,serif" font-size="14.00" fill="#000000">Yes</text>
</g>
<!-- Stop -->
<g id="node24" class="node">
<title>Stop</title>
<polygon fill="#ff0000" stroke="transparent" points="1223,-213.8 1169,-213.8 1169,-177.8 1223,-177.8 1223,-213.8"/>
<text text-anchor="middle" x="1196" y="-191.6" font-family="Times,serif" font-size="14.00" fill="#000000">Stop</text>
</g>
<!-- Path exist?&#45;&gt;Stop -->
<g id="edge36" class="edge">
<title>Path exist?&#45;&gt;Stop</title>
<path fill="none" stroke="#000000" d="M1833.1526,-304.8052C1687.746,-297.3372 1289.0378,-274.529 1237,-246.6 1226.6019,-241.0193 1217.8795,-231.5742 1211.19,-222.3316"/>
<polygon fill="#000000" stroke="#000000" points="1214.0973,-220.3829 1205.6282,-214.017 1208.279,-224.2749 1214.0973,-220.3829"/>
<text text-anchor="middle" x="1365.5533" y="-258.8" font-family="Times,serif" font-size="14.00" fill="#000000">No</text>
</g>
</g>
</svg>
