<?xml version="1.0" encoding="UTF-8" standalone="no"?>
<!DOCTYPE svg PUBLIC "-//W3C//DTD SVG 1.1//EN"
 "http://www.w3.org/Graphics/SVG/1.1/DTD/svg11.dtd">
<!-- Generated by graphviz version 2.40.1 (20161225.0304)
 -->
<!-- Title: G Pages: 1 -->
<svg width="470pt" height="450pt"
 viewBox="0.00 0.00 470.00 450.03" xmlns="http://www.w3.org/2000/svg" xmlns:xlink="http://www.w3.org/1999/xlink">
<g id="graph0" class="graph" transform="scale(1 1) rotate(0) translate(4 446.0313)">
<title>G</title>
<polygon fill="#ffffff" stroke="transparent" points="-4,4 -4,-446.0313 466,-446.0313 466,4 -4,4"/>
<g id="clust1" class="cluster">
<title>cluster0</title>
<polygon fill="none" stroke="#0000ff" points="8,-80.8 8,-434.0313 454,-434.0313 454,-80.8 8,-80.8"/>
<text text-anchor="middle" x="231" y="-417.4313" font-family="Times,serif" font-size="14.00" fill="#000000">Cross Bridge</text>
</g>
<!-- identify bridge or not -->
<g id="node1" class="node">
<title>identify bridge or not</title>
<polygon fill="none" stroke="#000000" points="221.8645,-401.2313 86.1355,-401.2313 86.1355,-365.2313 221.8645,-365.2313 221.8645,-401.2313"/>
<text text-anchor="middle" x="154" y="-379.0313" font-family="Times,serif" font-size="14.00" fill="#000000">identify bridge or not</text>
</g>
<!-- send turning command\ndrive along x direction -->
<g id="node2" class="node">
<title>send turning command\ndrive along x direction</title>
<ellipse fill="none" stroke="#000000" cx="118" cy="-245.0156" rx="102.0872" ry="29.3315"/>
<text text-anchor="middle" x="118" y="-249.2156" font-family="Times,serif" font-size="14.00" fill="#000000">send turning command</text>
<text text-anchor="middle" x="118" y="-232.4156" font-family="Times,serif" font-size="14.00" fill="#000000">drive along x direction</text>
</g>
<!-- identify bridge or not&#45;&gt;send turning command\ndrive along x direction -->
<g id="edge1" class="edge">
<title>identify bridge or not&#45;&gt;send turning command\ndrive along x direction</title>
<path fill="none" stroke="#000000" d="M145.5092,-364.9941C140.8956,-354.4484 135.4274,-340.8141 131.8934,-328.2313 127.9799,-314.2972 125.0176,-298.722 122.8553,-284.8484"/>
<polygon fill="#000000" stroke="#000000" points="126.2701,-284.0121 121.3551,-274.6263 119.3443,-285.0286 126.2701,-284.0121"/>
<text text-anchor="middle" x="139.5533" y="-315.6313" font-family="Times,serif" font-size="14.00" fill="#000000">No</text>
</g>
<!-- send turning command\ndrive along &#45;z direction -->
<g id="node3" class="node">
<title>send turning command\ndrive along &#45;z direction</title>
<ellipse fill="none" stroke="#000000" cx="342" cy="-245.0156" rx="103.9004" ry="29.3315"/>
<text text-anchor="middle" x="342" y="-249.2156" font-family="Times,serif" font-size="14.00" fill="#000000">send turning command</text>
<text text-anchor="middle" x="342" y="-232.4156" font-family="Times,serif" font-size="14.00" fill="#000000">drive along &#45;z direction</text>
</g>
<!-- identify bridge or not&#45;&gt;send turning command\ndrive along &#45;z direction -->
<g id="edge3" class="edge">
<title>identify bridge or not&#45;&gt;send turning command\ndrive along &#45;z direction</title>
<path fill="none" stroke="#000000" d="M178.5777,-365.162C208.3731,-343.2567 259.1938,-305.8939 296.2676,-278.6376"/>
<polygon fill="#000000" stroke="#000000" points="298.4446,-281.3812 304.4284,-272.6379 294.2983,-275.7414 298.4446,-281.3812"/>
<text text-anchor="middle" x="261.8829" y="-315.6313" font-family="Times,serif" font-size="14.00" fill="#000000">Yes</text>
</g>
<!-- send turning command\ndrive along x direction&#45;&gt;identify bridge or not -->
<g id="edge2" class="edge">
<title>send turning command\ndrive along x direction&#45;&gt;identify bridge or not</title>
<path fill="none" stroke="#000000" d="M134.4662,-274.2315C140.0586,-285.5128 145.7179,-298.7425 149,-311.4313 152.6295,-325.4632 153.9965,-341.5197 154.4061,-354.8855"/>
<polygon fill="#000000" stroke="#000000" points="150.9071,-354.9903 154.5542,-364.9376 157.9064,-354.8871 150.9071,-354.9903"/>
</g>
<!-- identify green beacon or not -->
<g id="node4" class="node">
<title>identify green beacon or not</title>
<polygon fill="none" stroke="#000000" points="427.8319,-124.8 254.1681,-124.8 254.1681,-88.8 427.8319,-88.8 427.8319,-124.8"/>
<text text-anchor="middle" x="341" y="-102.6" font-family="Times,serif" font-size="14.00" fill="#000000">identify green beacon or not</text>
</g>
<!-- send turning command\ndrive along &#45;z direction&#45;&gt;identify green beacon or not -->
<g id="edge4" class="edge">
<title>send turning command\ndrive along &#45;z direction&#45;&gt;identify green beacon or not</title>
<path fill="none" stroke="#000000" d="M338.8304,-215.3766C337.4829,-199.4956 336.3539,-179.5903 337,-161.8 337.3127,-153.1892 337.8999,-143.8351 338.53,-135.3246"/>
<polygon fill="#000000" stroke="#000000" points="342.038,-135.359 339.3336,-125.1152 335.0596,-134.8097 342.038,-135.359"/>
</g>
<!-- identify green beacon or not&#45;&gt;send turning command\ndrive along &#45;z direction -->
<g id="edge5" class="edge">
<title>identify green beacon or not&#45;&gt;send turning command\ndrive along &#45;z direction</title>
<path fill="none" stroke="#000000" d="M341.607,-125.1121C341.7685,-130.7813 341.9201,-137.0483 342,-142.8 342.2869,-163.4607 342.3128,-186.4728 342.2558,-205.4231"/>
<polygon fill="#000000" stroke="#000000" points="338.7557,-205.4789 342.2167,-215.4925 345.7556,-205.5062 338.7557,-205.4789"/>
<text text-anchor="middle" x="350.5533" y="-166" font-family="Times,serif" font-size="14.00" fill="#000000">No</text>
</g>
<!-- Cross Gate -->
<g id="node5" class="node">
<title>Cross Gate</title>
<polygon fill="#a020f0" stroke="#000000" points="379.813,-36 302.187,-36 302.187,0 379.813,0 379.813,-36"/>
<text text-anchor="middle" x="341" y="-13.8" font-family="Times,serif" font-size="14.00" fill="#000000">Cross Gate</text>
</g>
<!-- identify green beacon or not&#45;&gt;Cross Gate -->
<g id="edge6" class="edge">
<title>identify green beacon or not&#45;&gt;Cross Gate</title>
<path fill="none" stroke="#000000" d="M341,-88.4006C341,-76.2949 341,-60.2076 341,-46.4674"/>
<polygon fill="#000000" stroke="#000000" points="344.5001,-46.072 341,-36.072 337.5001,-46.0721 344.5001,-46.072"/>
<text text-anchor="middle" x="351.8829" y="-58.2" font-family="Times,serif" font-size="14.00" fill="#000000">Yes</text>
</g>
</g>
</svg>
