<?xml version="1.0" encoding="UTF-8" standalone="no"?>
<!DOCTYPE svg PUBLIC "-//W3C//DTD SVG 1.1//EN"
 "http://www.w3.org/Graphics/SVG/1.1/DTD/svg11.dtd">
<!-- Generated by graphviz version 2.40.1 (20161225.0304)
 -->
<!-- Title: G Pages: 1 -->
<svg width="470pt" height="450pt"
 viewBox="0.00 0.00 470.00 450.03" xmlns="http://www.w3.org/2000/svg" xmlns:xlink="http://www.w3.org/1999/xlink">
<g id="graph0" class="graph" transform="scale(1 1) rotate(0) translate(4 446.0313)">
<title>G</title>
<polygon fill="#ffffff" stroke="transparent" points="-4,4 -4,-446.0313 466,-446.0313 466,4 -4,4"/>
<g id="clust1" class="cluster">
<title>cluster0</title>
<polygon fill="none" stroke="#0000ff" points="8,-80.8 8,-434.0313 454,-434.0313 454,-80.8 8,-80.8"/>
<text text-anchor="middle" x="231" y="-417.4313" font-family="Times,serif" font-size="14.00" fill="#000000">Cross Gate</text>
</g>
<!-- identify gate or not -->
<g id="node1" class="node">
<title>identify gate or not</title>
<polygon fill="none" stroke="#000000" points="215.418,-401.2313 92.582,-401.2313 92.582,-365.2313 215.418,-365.2313 215.418,-401.2313"/>
<text text-anchor="middle" x="154" y="-379.0313" font-family="Times,serif" font-size="14.00" fill="#000000">identify gate or not</text>
</g>
<!-- send turning command\ndrive along x direction -->
<g id="node2" class="node">
<title>send turning command\ndrive along x direction</title>
<ellipse fill="none" stroke="#000000" cx="118" cy="-245.0156" rx="102.0872" ry="29.3315"/>
<text text-anchor="middle" x="118" y="-249.2156" font-family="Times,serif" font-size="14.00" fill="#000000">send turning command</text>
<text text-anchor="middle" x="118" y="-232.4156" font-family="Times,serif" font-size="14.00" fill="#000000">drive along x direction</text>
</g>
<!-- identify gate or not&#45;&gt;send turning command\ndrive along x direction -->
<g id="edge1" class="edge">
<title>identify gate or not&#45;&gt;send turning command\ndrive along x direction</title>
<path fill="none" stroke="#000000" d="M145.5092,-364.9941C140.8956,-354.4484 135.4274,-340.8141 131.8934,-328.2313 127.9799,-314.2972 125.0176,-298.722 122.8553,-284.8484"/>
<polygon fill="#000000" stroke="#000000" points="126.2701,-284.0121 121.3551,-274.6263 119.3443,-285.0286 126.2701,-284.0121"/>
<text text-anchor="middle" x="139.5533" y="-315.6313" font-family="Times,serif" font-size="14.00" fill="#000000">No</text>
</g>
<!-- send turning command\ndrive along &#45;z direction -->
<g id="node3" class="node">
<title>send turning command\ndrive along &#45;z direction</title>
<ellipse fill="none" stroke="#000000" cx="342" cy="-245.0156" rx="103.9004" ry="29.3315"/>
<text text-anchor="middle" x="342" y="-249.2156" font-family="Times,serif" font-size="14.00" fill="#000000">send turning command</text>
<text text-anchor="middle" x="342" y="-232.4156" font-family="Times,serif" font-size="14.00" fill="#000000">drive along &#45;z direction</text>
</g>
<!-- identify gate or not&#45;&gt;send turning command\ndrive along &#45;z direction -->
<g id="edge3" class="edge">
<title>identify gate or not&#45;&gt;send turning command\ndrive along &#45;z direction</title>
<path fill="none" stroke="#000000" d="M178.5777,-365.162C208.3731,-343.2567 259.1938,-305.8939 296.2676,-278.6376"/>
<polygon fill="#000000" stroke="#000000" points="298.4446,-281.3812 304.4284,-272.6379 294.2983,-275.7414 298.4446,-281.3812"/>
<text text-anchor="middle" x="261.8829" y="-315.6313" font-family="Times,serif" font-size="14.00" fill="#000000">Yes</text>
</g>
<!-- send turning command\ndrive along x direction&#45;&gt;identify gate or not -->
<g id="edge2" class="edge">
<title>send turning command\ndrive along x direction&#45;&gt;identify gate or not</title>
<path fill="none" stroke="#000000" d="M134.4662,-274.2315C140.0586,-285.5128 145.7179,-298.7425 149,-311.4313 152.6295,-325.4632 153.9965,-341.5197 154.4061,-354.8855"/>
<polygon fill="#000000" stroke="#000000" points="150.9071,-354.9903 154.5542,-364.9376 157.9064,-354.8871 150.9071,-354.9903"/>
</g>
<!-- find line or not -->
<g id="node4" class="node">
<title>find line or not</title>
<polygon fill="none" stroke="#000000" points="391.599,-124.8 292.401,-124.8 292.401,-88.8 391.599,-88.8 391.599,-124.8"/>
<text text-anchor="middle" x="342" y="-102.6" font-family="Times,serif" font-size="14.00" fill="#000000">find line or not</text>
</g>
<!-- send turning command\ndrive along &#45;z direction&#45;&gt;find line or not -->
<g id="edge4" class="edge">
<title>send turning command\ndrive along &#45;z direction&#45;&gt;find line or not</title>
<path fill="none" stroke="#000000" d="M339.3601,-215.3673C338.2525,-199.4836 337.3544,-179.5788 338,-161.8 338.3127,-153.1892 338.8999,-143.8351 339.53,-135.3246"/>
<polygon fill="#000000" stroke="#000000" points="343.038,-135.359 340.3336,-125.1152 336.0596,-134.8097 343.038,-135.359"/>
</g>
<!-- find line or not&#45;&gt;send turning command\ndrive along &#45;z direction -->
<g id="edge5" class="edge">
<title>find line or not&#45;&gt;send turning command\ndrive along &#45;z direction</title>
<path fill="none" stroke="#000000" d="M342.607,-125.1121C342.7685,-130.7813 342.9201,-137.0483 343,-142.8 343.3382,-167.1532 343.2568,-173.2458 343,-197.6 342.9734,-200.1214 342.9389,-202.7182 342.8987,-205.3361"/>
<polygon fill="#000000" stroke="#000000" points="339.3977,-205.3636 342.7203,-215.4239 346.3966,-205.4874 339.3977,-205.3636"/>
<text text-anchor="middle" x="351.5533" y="-166" font-family="Times,serif" font-size="14.00" fill="#000000">No</text>
</g>
<!-- Line Patrol -->
<g id="node5" class="node">
<title>Line Patrol</title>
<polygon fill="#00ff00" stroke="#000000" points="381.0978,-36 302.9022,-36 302.9022,0 381.0978,0 381.0978,-36"/>
<text text-anchor="middle" x="342" y="-13.8" font-family="Times,serif" font-size="14.00" fill="#000000">Line Patrol</text>
</g>
<!-- find line or not&#45;&gt;Line Patrol -->
<g id="edge6" class="edge">
<title>find line or not&#45;&gt;Line Patrol</title>
<path fill="none" stroke="#000000" d="M342,-88.4006C342,-76.2949 342,-60.2076 342,-46.4674"/>
<polygon fill="#000000" stroke="#000000" points="345.5001,-46.072 342,-36.072 338.5001,-46.0721 345.5001,-46.072"/>
<text text-anchor="middle" x="352.8829" y="-58.2" font-family="Times,serif" font-size="14.00" fill="#000000">Yes</text>
</g>
</g>
</svg>
