<?xml version="1.0" encoding="UTF-8" standalone="no"?>
<!DOCTYPE svg PUBLIC "-//W3C//DTD SVG 1.1//EN"
 "http://www.w3.org/Graphics/SVG/1.1/DTD/svg11.dtd">
<!-- Generated by graphviz version 2.40.1 (20161225.0304)
 -->
<!-- Title: G Pages: 1 -->
<svg width="801pt" height="208pt"
 viewBox="0.00 0.00 801.31 208.00" xmlns="http://www.w3.org/2000/svg" xmlns:xlink="http://www.w3.org/1999/xlink">
<g id="graph0" class="graph" transform="scale(1 1) rotate(0) translate(4 204)">
<title>G</title>
<polygon fill="#ffffff" stroke="transparent" points="-4,4 -4,-204 797.3108,-204 797.3108,4 -4,4"/>
<g id="clust1" class="cluster">
<title>cluster0</title>
<polygon fill="none" stroke="#000000" points="8,-8 8,-192 785.3108,-192 785.3108,-8 8,-8"/>
<text text-anchor="middle" x="396.6554" y="-175.4" font-family="Times,serif" font-size="14.00" fill="#000000">General flow&#45;chart</text>
</g>
<!-- line patrol -->
<g id="node1" class="node">
<title>line patrol</title>
<polygon fill="none" stroke="#000000" points="89.2285,-106 15.9237,-106 15.9237,-70 89.2285,-70 89.2285,-106"/>
<text text-anchor="middle" x="52.5761" y="-83.8" font-family="Times,serif" font-size="14.00" fill="#000000">line patrol</text>
</g>
<!-- cross bridge -->
<g id="node2" class="node">
<title>cross bridge</title>
<polygon fill="none" stroke="#000000" points="484.2668,-52 400.2064,-52 400.2064,-16 484.2668,-16 484.2668,-52"/>
<text text-anchor="middle" x="442.2366" y="-29.8" font-family="Times,serif" font-size="14.00" fill="#000000">cross bridge</text>
</g>
<!-- line patrol&#45;&gt;cross bridge -->
<g id="edge1" class="edge">
<title>line patrol&#45;&gt;cross bridge</title>
<path fill="none" stroke="#000000" d="M89.3329,-76.2775C101.0046,-72.9153 114.0295,-69.5325 126.1522,-67.2 218.0266,-49.523 326.8626,-40.6977 389.8858,-36.7532"/>
<polygon fill="#000000" stroke="#000000" points="390.2058,-40.2403 399.9746,-36.1391 389.7804,-33.2532 390.2058,-40.2403"/>
<text text-anchor="middle" x="229.6353" y="-71.2" font-family="Times,serif" font-size="14.00" fill="#000000">no line &amp; no path color signal</text>
</g>
<!-- stop -->
<g id="node3" class="node">
<title>stop</title>
<polygon fill="none" stroke="#000000" points="469.2366,-106 415.2366,-106 415.2366,-70 469.2366,-70 469.2366,-106"/>
<text text-anchor="middle" x="442.2366" y="-83.8" font-family="Times,serif" font-size="14.00" fill="#000000">stop</text>
</g>
<!-- line patrol&#45;&gt;stop -->
<g id="edge2" class="edge">
<title>line patrol&#45;&gt;stop</title>
<path fill="none" stroke="#000000" d="M89.2344,-88C163.2696,-88 329.9296,-88 404.695,-88"/>
<polygon fill="#000000" stroke="#000000" points="405.0372,-91.5001 415.0372,-88 405.0372,-84.5001 405.0372,-91.5001"/>
<text text-anchor="middle" x="229.6353" y="-92.2" font-family="Times,serif" font-size="14.00" fill="#000000">no line &gt; 5s &amp; have path color signal</text>
</g>
<!-- cross gate -->
<g id="node4" class="node">
<title>cross gate</title>
<polygon fill="none" stroke="#000000" points="777.1041,-106 705.9333,-106 705.9333,-70 777.1041,-70 777.1041,-106"/>
<text text-anchor="middle" x="741.5187" y="-83.8" font-family="Times,serif" font-size="14.00" fill="#000000">cross gate</text>
</g>
<!-- cross bridge&#45;&gt;cross gate -->
<g id="edge3" class="edge">
<title>cross bridge&#45;&gt;cross gate</title>
<path fill="none" stroke="#000000" d="M484.4817,-41.6224C540.2661,-51.6876 638.1362,-69.3465 695.6686,-79.7272"/>
<polygon fill="#000000" stroke="#000000" points="695.1149,-83.1837 705.5775,-81.5151 696.3579,-76.295 695.1149,-83.1837"/>
<text text-anchor="middle" x="610.0407" y="-78.2" font-family="Times,serif" font-size="14.00" fill="#000000">&#39;beacon&#39; after bridge</text>
</g>
<!-- cross gate&#45;&gt;line patrol -->
<g id="edge4" class="edge">
<title>cross gate&#45;&gt;line patrol</title>
<path fill="none" stroke="#000000" d="M714.6279,-106.2819C688.9377,-121.9478 648.5357,-142 610.0407,-142 229.6353,-142 229.6353,-142 229.6353,-142 183.6627,-142 133.7818,-125.1386 98.7154,-110.2598"/>
<polygon fill="#000000" stroke="#000000" points="99.7992,-106.9143 89.2333,-106.1314 97.0048,-113.3324 99.7992,-106.9143"/>
<text text-anchor="middle" x="442.2366" y="-146.2" font-family="Times,serif" font-size="14.00" fill="#000000">have path direction signal</text>
</g>
</g>
</svg>
