<?xml version="1.0" encoding="UTF-8" standalone="no"?>
<!DOCTYPE svg PUBLIC "-//W3C//DTD SVG 1.1//EN"
 "http://www.w3.org/Graphics/SVG/1.1/DTD/svg11.dtd">
<!-- Generated by graphviz version 2.40.1 (20161225.0304)
 -->
<!-- Title: G Pages: 1 -->
<svg width="576pt" height="354pt"
 viewBox="0.00 0.00 576.24 354.40" xmlns="http://www.w3.org/2000/svg" xmlns:xlink="http://www.w3.org/1999/xlink">
<g id="graph0" class="graph" transform="scale(1 1) rotate(0) translate(4 350.4)">
<title>G</title>
<polygon fill="#ffffff" stroke="transparent" points="-4,4 -4,-350.4 572.2364,-350.4 572.2364,4 -4,4"/>
<g id="clust1" class="cluster">
<title>cluster0</title>
<polygon fill="none" stroke="#0000ff" points="8,-8 8,-338.4 472,-338.4 472,-8 8,-8"/>
<text text-anchor="middle" x="240" y="-321.8" font-family="Times,serif" font-size="14.00" fill="#000000">General flow&#45;chart</text>
</g>
<!-- line patrol -->
<g id="node1" class="node">
<title>line patrol</title>
<ellipse fill="none" stroke="#000000" cx="237" cy="-287.6" rx="50.4181" ry="18"/>
<text text-anchor="middle" x="237" y="-283.4" font-family="Times,serif" font-size="14.00" fill="#000000">line patrol</text>
</g>
<!-- cross bridge -->
<g id="node2" class="node">
<title>cross bridge</title>
<ellipse fill="none" stroke="#000000" cx="104" cy="-160.8" rx="57.925" ry="18"/>
<text text-anchor="middle" x="104" y="-156.6" font-family="Times,serif" font-size="14.00" fill="#000000">cross bridge</text>
</g>
<!-- line patrol&#45;&gt;cross bridge -->
<g id="edge1" class="edge">
<title>line patrol&#45;&gt;cross bridge</title>
<path fill="none" stroke="#000000" d="M191.9873,-279.3241C146.4991,-269.9371 80.837,-253.2219 65.8022,-232.6 55.064,-217.8715 64.8691,-199.7392 77.2293,-185.3814"/>
<polygon fill="#000000" stroke="#000000" points="79.997,-187.5449 84.2447,-177.8388 74.8713,-182.7775 79.997,-187.5449"/>
<text text-anchor="middle" x="148.5989" y="-220" font-family="Times,serif" font-size="14.00" fill="#000000">no line &amp; no path color signal</text>
</g>
<!-- stop -->
<g id="node3" class="node">
<title>stop</title>
<ellipse fill="none" stroke="#000000" cx="237" cy="-160.8" rx="27.2661" ry="18"/>
<text text-anchor="middle" x="237" y="-156.6" font-family="Times,serif" font-size="14.00" fill="#000000">stop</text>
</g>
<!-- line patrol&#45;&gt;stop -->
<g id="edge2" class="edge">
<title>line patrol&#45;&gt;stop</title>
<path fill="none" stroke="#000000" d="M237,-269.4327C237,-248.4352 237,-213.6261 237,-189.079"/>
<polygon fill="#000000" stroke="#000000" points="240.5001,-188.9336 237,-178.9336 233.5001,-188.9337 240.5001,-188.9336"/>
<text text-anchor="middle" x="340.4831" y="-220" font-family="Times,serif" font-size="14.00" fill="#000000">no line &gt; 5s &amp; have path color signal</text>
</g>
<!-- cross gate -->
<g id="node4" class="node">
<title>cross gate</title>
<ellipse fill="none" stroke="#000000" cx="212" cy="-34" rx="49.2553" ry="18"/>
<text text-anchor="middle" x="212" y="-29.8" font-family="Times,serif" font-size="14.00" fill="#000000">cross gate</text>
</g>
<!-- cross bridge&#45;&gt;cross gate -->
<g id="edge3" class="edge">
<title>cross bridge&#45;&gt;cross gate</title>
<path fill="none" stroke="#000000" d="M119.0169,-143.169C137.555,-121.4039 169.2179,-84.2294 190.3732,-59.3915"/>
<polygon fill="#000000" stroke="#000000" points="193.2909,-61.3636 197.1106,-51.4813 187.9619,-56.8247 193.2909,-61.3636"/>
<text text-anchor="middle" x="221.6859" y="-93.2" font-family="Times,serif" font-size="14.00" fill="#000000">&#39;beacon&#39; after bridge</text>
</g>
<!-- cross gate&#45;&gt;line patrol -->
<g id="edge4" class="edge">
<title>cross gate&#45;&gt;line patrol</title>
<path fill="none" stroke="#000000" d="M244.9041,-47.5806C299.1008,-71.993 405.3829,-128.9801 448,-215.8 451.2901,-222.5027 452.5656,-226.6918 448,-232.6 429.4231,-256.64 351.1934,-272.1557 295.4174,-280.3859"/>
<polygon fill="#000000" stroke="#000000" points="294.6858,-276.9549 285.2835,-281.8383 295.6789,-283.8841 294.6858,-276.9549"/>
<text text-anchor="middle" x="496.1182" y="-156.6" font-family="Times,serif" font-size="14.00" fill="#000000">have path direction signal</text>
</g>
</g>
</svg>
