<?xml version="1.0" encoding="UTF-8" standalone="no"?>
<!DOCTYPE svg PUBLIC "-//W3C//DTD SVG 1.1//EN"
 "http://www.w3.org/Graphics/SVG/1.1/DTD/svg11.dtd">
<!-- Generated by graphviz version 2.40.1 (20161225.0304)
 -->
<!-- Title: G Pages: 1 -->
<svg width="1121pt" height="2042pt"
 viewBox="0.00 0.00 1121.00 2041.73" xmlns="http://www.w3.org/2000/svg" xmlns:xlink="http://www.w3.org/1999/xlink">
<g id="graph0" class="graph" transform="scale(1 1) rotate(0) translate(4 2037.7251)">
<title>G</title>
<polygon fill="#ffffff" stroke="transparent" points="-4,4 -4,-2037.7251 1117,-2037.7251 1117,4 -4,4"/>
<g id="clust1" class="cluster">
<title>cluster0</title>
<polygon fill="none" stroke="#0000ff" points="757,-1617.4939 757,-1970.7251 1021,-1970.7251 1021,-1617.4939 757,-1617.4939"/>
<text text-anchor="middle" x="889" y="-1954.1251" font-family="Times,serif" font-size="14.00" fill="#000000">巡线1</text>
</g>
<g id="clust2" class="cluster">
<title>cluster2</title>
<polygon fill="none" stroke="#0000ff" points="312,-952.0626 312,-1598.4939 670,-1598.4939 670,-952.0626 312,-952.0626"/>
<text text-anchor="middle" x="491" y="-1581.8939" font-family="Times,serif" font-size="14.00" fill="#000000">沿x正方向直行</text>
</g>
<g id="clust3" class="cluster">
<title>cluster3</title>
<polygon fill="none" stroke="#0000ff" points="758,-1063.6626 758,-1486.8939 1090,-1486.8939 1090,-1063.6626 758,-1063.6626"/>
<text text-anchor="middle" x="924" y="-1470.2939" font-family="Times,serif" font-size="14.00" fill="#000000">桥/门前姿态调整</text>
</g>
<g id="clust4" class="cluster">
<title>cluster4</title>
<polygon fill="none" stroke="#0000ff" points="8,-1410.0939 8,-1959.3095 304,-1959.3095 304,-1410.0939 8,-1410.0939"/>
<text text-anchor="middle" x="156" y="-1942.7095" font-family="Times,serif" font-size="14.00" fill="#000000">过桥</text>
</g>
<g id="clust5" class="cluster">
<title>cluster5</title>
<polygon fill="none" stroke="#0000ff" points="851,-825.2626 851,-1028.8626 1065,-1028.8626 1065,-825.2626 851,-825.2626"/>
<text text-anchor="middle" x="958" y="-1012.2626" font-family="Times,serif" font-size="14.00" fill="#000000">过门</text>
</g>
<g id="clust6" class="cluster">
<title>cluster6</title>
<polygon fill="none" stroke="#0000ff" points="826,-564.0313 826,-790.4626 1090,-790.4626 1090,-564.0313 826,-564.0313"/>
<text text-anchor="middle" x="958" y="-773.8626" font-family="Times,serif" font-size="14.00" fill="#000000">巡线2</text>
</g>
<g id="clust7" class="cluster">
<title>cluster7</title>
<polygon fill="none" stroke="#0000ff" points="811,-80.8 811,-529.2313 1105,-529.2313 1105,-80.8 811,-80.8"/>
<text text-anchor="middle" x="958" y="-512.6313" font-family="Times,serif" font-size="14.00" fill="#000000">巡彩色线</text>
</g>
<!-- 开始 -->
<g id="node1" class="node">
<title>开始</title>
<polygon fill="#00ff00" stroke="transparent" points="916,-2033.7251 862,-2033.7251 862,-1997.7251 916,-1997.7251 916,-2033.7251"/>
<text text-anchor="middle" x="889" y="-2011.5251" font-family="Times,serif" font-size="14.00" fill="#000000">开始</text>
</g>
<!-- 识别路角度并传递给\n底盘组更新四轮速度 -->
<g id="node2" class="node">
<title>识别路角度并传递给\n底盘组更新四轮速度</title>
<ellipse fill="none" stroke="#000000" cx="889" cy="-1908.5095" rx="123.985" ry="29.3315"/>
<text text-anchor="middle" x="889" y="-1912.7095" font-family="Times,serif" font-size="14.00" fill="#000000">识别路角度并传递给</text>
<text text-anchor="middle" x="889" y="-1895.9095" font-family="Times,serif" font-size="14.00" fill="#000000">底盘组更新四轮速度</text>
</g>
<!-- 开始&#45;&gt;识别路角度并传递给\n底盘组更新四轮速度 -->
<g id="edge23" class="edge">
<title>开始&#45;&gt;识别路角度并传递给\n底盘组更新四轮速度</title>
<path fill="none" stroke="#000000" d="M889,-1997.5375C889,-1984.0801 889,-1965.2324 889,-1948.3419"/>
<polygon fill="#000000" stroke="#000000" points="892.5001,-1948.1437 889,-1938.1438 885.5001,-1948.1438 892.5001,-1948.1437"/>
</g>
<!-- 右摄像头识别橙色色块 -->
<g id="node3" class="node">
<title>右摄像头识别橙色色块</title>
<ellipse fill="none" stroke="#000000" cx="871" cy="-1770.2939" rx="105.1015" ry="18"/>
<text text-anchor="middle" x="871" y="-1766.0939" font-family="Times,serif" font-size="14.00" fill="#000000">右摄像头识别橙色色块</text>
</g>
<!-- 识别路角度并传递给\n底盘组更新四轮速度&#45;&gt;右摄像头识别橙色色块 -->
<g id="edge1" class="edge">
<title>识别路角度并传递给\n底盘组更新四轮速度&#45;&gt;右摄像头识别橙色色块</title>
<path fill="none" stroke="#000000" d="M882.3867,-1878.8833C880.0468,-1867.4403 877.6011,-1854.2078 876,-1842.0939 874.1197,-1827.8673 872.9201,-1811.9554 872.169,-1798.7332"/>
<polygon fill="#000000" stroke="#000000" points="875.6446,-1798.1636 871.6384,-1788.3554 868.6537,-1798.5211 875.6446,-1798.1636"/>
</g>
<!-- 右摄像头识别橙色色块&#45;&gt;识别路角度并传递给\n底盘组更新四轮速度 -->
<g id="edge2" class="edge">
<title>右摄像头识别橙色色块&#45;&gt;识别路角度并传递给\n底盘组更新四轮速度</title>
<path fill="none" stroke="#000000" d="M874.2236,-1788.5816C875.1754,-1794.2498 876.1808,-1800.5224 877,-1806.2939 879.9239,-1826.892 882.6705,-1849.8984 884.7962,-1868.8612"/>
<polygon fill="#000000" stroke="#000000" points="881.3326,-1869.3843 885.9105,-1878.9391 888.2902,-1868.615 881.3326,-1869.3843"/>
<text text-anchor="middle" x="909.7749" y="-1829.4939" font-family="Times,serif" font-size="14.00" fill="#000000">未识别到</text>
</g>
<!-- 投食 -->
<g id="node4" class="node">
<title>投食</title>
<ellipse fill="none" stroke="#000000" cx="834" cy="-1643.4939" rx="32.4865" ry="18"/>
<text text-anchor="middle" x="834" y="-1639.2939" font-family="Times,serif" font-size="14.00" fill="#000000">投食</text>
</g>
<!-- 右摄像头识别橙色色块&#45;&gt;投食 -->
<g id="edge3" class="edge">
<title>右摄像头识别橙色色块&#45;&gt;投食</title>
<path fill="none" stroke="#000000" d="M865.6988,-1752.1265C859.5443,-1731.0349 849.3234,-1696.0074 842.1556,-1671.4433"/>
<polygon fill="#000000" stroke="#000000" points="845.4525,-1670.2467 839.2914,-1661.6275 838.7327,-1672.2076 845.4525,-1670.2467"/>
<text text-anchor="middle" x="876.1676" y="-1702.6939" font-family="Times,serif" font-size="14.00" fill="#000000">识别到</text>
</g>
<!-- 左摄像头识别桥 -->
<g id="node5" class="node">
<title>左摄像头识别桥</title>
<ellipse fill="none" stroke="#000000" cx="578" cy="-1547.6939" rx="76.2606" ry="18"/>
<text text-anchor="middle" x="578" y="-1543.4939" font-family="Times,serif" font-size="14.00" fill="#000000">左摄像头识别桥</text>
</g>
<!-- 投食&#45;&gt;左摄像头识别桥 -->
<g id="edge4" class="edge">
<title>投食&#45;&gt;左摄像头识别桥</title>
<path fill="none" stroke="#000000" d="M806.6035,-1633.2416C764.2249,-1617.3827 682.1008,-1586.6503 628.6912,-1566.6635"/>
<polygon fill="#000000" stroke="#000000" points="629.6611,-1563.2894 619.0687,-1563.0625 627.2077,-1569.8454 629.6611,-1563.2894"/>
</g>
<!-- 检测小车方向与x正方向夹角 -->
<g id="node6" class="node">
<title>检测小车方向与x正方向夹角</title>
<ellipse fill="none" stroke="#000000" cx="453" cy="-1347.2939" rx="133.1272" ry="18"/>
<text text-anchor="middle" x="453" y="-1343.0939" font-family="Times,serif" font-size="14.00" fill="#000000">检测小车方向与x正方向夹角</text>
</g>
<!-- 左摄像头识别桥&#45;&gt;检测小车方向与x正方向夹角 -->
<g id="edge25" class="edge">
<title>左摄像头识别桥&#45;&gt;检测小车方向与x正方向夹角</title>
<path fill="none" stroke="#000000" d="M548.684,-1531.0498C532.1603,-1520.3393 512.3153,-1505.0426 499.4502,-1486.8939 475.375,-1452.931 463.1273,-1405.6291 457.4055,-1375.7392"/>
<polygon fill="#000000" stroke="#000000" points="460.7925,-1374.7974 455.5829,-1365.5719 453.9024,-1376.0326 460.7925,-1374.7974"/>
<text text-anchor="middle" x="527.7749" y="-1431.8939" font-family="Times,serif" font-size="14.00" fill="#000000">未识别到</text>
</g>
<!-- 识别目标在左摄像头视野偏离程度 -->
<g id="node9" class="node">
<title>识别目标在左摄像头视野偏离程度</title>
<ellipse fill="none" stroke="#000000" cx="924" cy="-1436.0939" rx="158.4227" ry="18"/>
<text text-anchor="middle" x="924" y="-1431.8939" font-family="Times,serif" font-size="14.00" fill="#000000">识别目标在左摄像头视野偏离程度</text>
</g>
<!-- 左摄像头识别桥&#45;&gt;识别目标在左摄像头视野偏离程度 -->
<g id="edge31" class="edge">
<title>左摄像头识别桥&#45;&gt;识别目标在左摄像头视野偏离程度</title>
<path fill="none" stroke="#000000" d="M623.2335,-1533.1041C684.0788,-1513.4788 792.565,-1478.4873 861.2683,-1456.3275"/>
<polygon fill="#000000" stroke="#000000" points="862.663,-1459.5553 871.1058,-1453.1545 860.5142,-1452.8933 862.663,-1459.5553"/>
<text text-anchor="middle" x="762.1676" y="-1499.0939" font-family="Times,serif" font-size="14.00" fill="#000000">识别到</text>
</g>
<!-- 将夹角传递给\n底盘组更新速度 -->
<g id="node7" class="node">
<title>将夹角传递给\n底盘组更新速度</title>
<ellipse fill="none" stroke="#000000" cx="584" cy="-1174.0782" rx="77.654" ry="29.3315"/>
<text text-anchor="middle" x="584" y="-1178.2782" font-family="Times,serif" font-size="14.00" fill="#000000">将夹角传递给</text>
<text text-anchor="middle" x="584" y="-1161.4782" font-family="Times,serif" font-size="14.00" fill="#000000">底盘组更新速度</text>
</g>
<!-- 检测小车方向与x正方向夹角&#45;&gt;将夹角传递给\n底盘组更新速度 -->
<g id="edge5" class="edge">
<title>检测小车方向与x正方向夹角&#45;&gt;将夹角传递给\n底盘组更新速度</title>
<path fill="none" stroke="#000000" d="M466.7717,-1329.0841C487.8746,-1301.1806 528.6458,-1247.2706 556.0965,-1210.9737"/>
<polygon fill="#000000" stroke="#000000" points="559.1843,-1212.6933 562.4248,-1202.6062 553.6012,-1208.4709 559.1843,-1212.6933"/>
</g>
<!-- 将夹角传递给\n底盘组更新速度&#45;&gt;左摄像头识别桥 -->
<g id="edge27" class="edge">
<title>将夹角传递给\n底盘组更新速度&#45;&gt;左摄像头识别桥</title>
<path fill="none" stroke="#000000" d="M594.7672,-1203.3787C607.3282,-1242.8103 623.0438,-1313.927 595,-1365.2939 587.9109,-1378.2788 574.0891,-1370.3089 567,-1383.2939 563.4221,-1389.8474 566.7223,-1392.6324 567,-1400.0939 568.5488,-1441.7168 572.5464,-1489.8053 575.2707,-1519.4844"/>
<polygon fill="#000000" stroke="#000000" points="571.795,-1519.9087 576.2099,-1529.5398 578.7647,-1519.2576 571.795,-1519.9087"/>
<text text-anchor="middle" x="626.8303" y="-1343.0939" font-family="Times,serif" font-size="14.00" fill="#000000">在找桥</text>
</g>
<!-- 左摄像头识别门 -->
<g id="node8" class="node">
<title>左摄像头识别门</title>
<ellipse fill="none" stroke="#000000" cx="582" cy="-978.0626" rx="80.2738" ry="18"/>
<text text-anchor="middle" x="582" y="-973.8626" font-family="Times,serif" font-size="14.00" fill="#000000">左摄像头识别门</text>
</g>
<!-- 将夹角传递给\n底盘组更新速度&#45;&gt;左摄像头识别门 -->
<g id="edge6" class="edge">
<title>将夹角传递给\n底盘组更新速度&#45;&gt;左摄像头识别门</title>
<path fill="none" stroke="#000000" d="M583.6962,-1144.3077C583.3133,-1106.779 582.66,-1042.7506 582.2858,-1006.0733"/>
<polygon fill="#000000" stroke="#000000" points="585.7856,-1006.0269 582.1837,-996.0631 578.786,-1006.0984 585.7856,-1006.0269"/>
<text text-anchor="middle" x="605.5533" y="-1085.4626" font-family="Times,serif" font-size="14.00" fill="#000000">在找门</text>
</g>
<!-- 左摄像头识别门&#45;&gt;检测小车方向与x正方向夹角 -->
<g id="edge26" class="edge">
<title>左摄像头识别门&#45;&gt;检测小车方向与x正方向夹角</title>
<path fill="none" stroke="#000000" d="M531.7192,-992.2621C487.7932,-1008.1046 431,-1038.4837 431,-1089.6626 431,-1274.2939 431,-1274.2939 431,-1274.2939 431,-1289.6939 435.5439,-1306.1737 440.5016,-1319.5712"/>
<polygon fill="#000000" stroke="#000000" points="437.3606,-1321.145 444.305,-1329.1466 443.8662,-1318.5608 437.3606,-1321.145"/>
<text text-anchor="middle" x="459.7749" y="-1169.8782" font-family="Times,serif" font-size="14.00" fill="#000000">未识别到</text>
</g>
<!-- 左摄像头识别门&#45;&gt;识别目标在左摄像头视野偏离程度 -->
<g id="edge28" class="edge">
<title>左摄像头识别门&#45;&gt;识别目标在左摄像头视野偏离程度</title>
<path fill="none" stroke="#000000" d="M652.0296,-986.8559C711.7494,-998.7372 788,-1026.3114 788,-1089.6626 788,-1347.2939 788,-1347.2939 788,-1347.2939 788,-1380.9151 817.5008,-1402.4808 849.0227,-1415.9276"/>
<polygon fill="#000000" stroke="#000000" points="847.8056,-1419.2103 858.3902,-1419.6761 850.4063,-1412.7113 847.8056,-1419.2103"/>
<text text-anchor="middle" x="810.1676" y="-1225.6939" font-family="Times,serif" font-size="14.00" fill="#000000">识别到</text>
</g>
<!-- 识别目标在左摄像头视野偏离程度&#45;&gt;检测小车方向与x正方向夹角 -->
<g id="edge24" class="edge">
<title>识别目标在左摄像头视野偏离程度&#45;&gt;检测小车方向与x正方向夹角</title>
<path fill="none" stroke="#000000" d="M794.8689,-1425.5918C741.945,-1419.9795 680.304,-1411.7568 625.2318,-1400.0939 585.9669,-1391.7785 542.7872,-1378.5315 509.4848,-1367.3869"/>
<polygon fill="#000000" stroke="#000000" points="510.5189,-1364.042 499.9247,-1364.1548 508.2769,-1370.6733 510.5189,-1364.042"/>
<text text-anchor="middle" x="699.3841" y="-1387.4939" font-family="Times,serif" font-size="14.00" fill="#000000">目标偏离左摄像头中心区域</text>
</g>
<!-- 左转90 -->
<g id="node10" class="node">
<title>左转90</title>
<ellipse fill="none" stroke="#000000" cx="924" cy="-1274.2939" rx="50.1727" ry="18"/>
<text text-anchor="middle" x="924" y="-1270.0939" font-family="Times,serif" font-size="14.00" fill="#000000">左转90</text>
</g>
<!-- 识别目标在左摄像头视野偏离程度&#45;&gt;左转90 -->
<g id="edge7" class="edge">
<title>识别目标在左摄像头视野偏离程度&#45;&gt;左转90</title>
<path fill="none" stroke="#000000" d="M924,-1417.8479C924,-1389.929 924,-1336.3589 924,-1303.1402"/>
<polygon fill="#000000" stroke="#000000" points="927.5001,-1302.7214 924,-1292.7214 920.5001,-1302.7215 927.5001,-1302.7214"/>
<text text-anchor="middle" x="1000.5177" y="-1343.0939" font-family="Times,serif" font-size="14.00" fill="#000000">目标进入左摄像头中心区域</text>
</g>
<!-- 检测小车方向与z负方向夹角 -->
<g id="node11" class="node">
<title>检测小车方向与z负方向夹角</title>
<ellipse fill="none" stroke="#000000" cx="949" cy="-1089.6626" rx="132.5848" ry="18"/>
<text text-anchor="middle" x="949" y="-1085.4626" font-family="Times,serif" font-size="14.00" fill="#000000">检测小车方向与z负方向夹角</text>
</g>
<!-- 左转90&#45;&gt;检测小车方向与z负方向夹角 -->
<g id="edge8" class="edge">
<title>左转90&#45;&gt;检测小车方向与z负方向夹角</title>
<path fill="none" stroke="#000000" d="M924.0425,-1256.1096C924.3775,-1230.8949 926.0004,-1183.9748 933,-1144.6626 934.6038,-1135.6553 937.1212,-1126.0188 939.6885,-1117.3685"/>
<polygon fill="#000000" stroke="#000000" points="943.048,-1118.3519 942.6735,-1107.7637 936.3633,-1116.2745 943.048,-1118.3519"/>
</g>
<!-- 检测小车方向与z负方向夹角&#45;&gt;左转90 -->
<g id="edge9" class="edge">
<title>检测小车方向与z负方向夹角&#45;&gt;左转90</title>
<path fill="none" stroke="#000000" d="M946.5618,-1107.9713C942.8197,-1136.028 935.4192,-1191.344 929,-1238.2939 928.656,-1240.8102 928.2965,-1243.4252 927.935,-1246.0457"/>
<polygon fill="#000000" stroke="#000000" points="924.4639,-1245.5961 926.5587,-1255.9818 931.3977,-1246.5566 924.4639,-1245.5961"/>
<text text-anchor="middle" x="978.9008" y="-1169.8782" font-family="Times,serif" font-size="14.00" fill="#000000">未对准&#45;z方向</text>
</g>
<!-- 沿z负方向直行 -->
<g id="node12" class="node">
<title>沿z负方向直行</title>
<ellipse fill="none" stroke="#000000" cx="193" cy="-1908.5095" rx="72.9198" ry="18"/>
<text text-anchor="middle" x="193" y="-1904.3095" font-family="Times,serif" font-size="14.00" fill="#000000">沿z负方向直行</text>
</g>
<!-- 检测小车方向与z负方向夹角&#45;&gt;沿z负方向直行 -->
<g id="edge29" class="edge">
<title>检测小车方向与z负方向夹角&#45;&gt;沿z负方向直行</title>
<path fill="none" stroke="#000000" d="M880.5155,-1105.1322C822.9519,-1120.1825 750,-1144.9936 750,-1174.0782 750,-1347.2939 750,-1347.2939 750,-1347.2939 750,-1416.832 738,-1433.7557 738,-1503.2939 738,-1833.6939 738,-1833.6939 738,-1833.6939 738,-1879.8197 427.638,-1898.9347 275.333,-1905.5381"/>
<polygon fill="#000000" stroke="#000000" points="274.9328,-1902.0519 265.0905,-1905.9736 275.2302,-1909.0455 274.9328,-1902.0519"/>
<text text-anchor="middle" x="769.2935" y="-1543.4939" font-family="Times,serif" font-size="14.00" fill="#000000">对准&#45;z方向</text>
</g>
<!-- 沿z负方向直行2 -->
<g id="node16" class="node">
<title>沿z负方向直行2</title>
<ellipse fill="none" stroke="#000000" cx="949" cy="-978.0626" rx="77.5762" ry="18"/>
<text text-anchor="middle" x="949" y="-973.8626" font-family="Times,serif" font-size="14.00" fill="#000000">沿z负方向直行2</text>
</g>
<!-- 检测小车方向与z负方向夹角&#45;&gt;沿z负方向直行2 -->
<g id="edge30" class="edge">
<title>检测小车方向与z负方向夹角&#45;&gt;沿z负方向直行2</title>
<path fill="none" stroke="#000000" d="M949,-1071.2341C949,-1053.6016 949,-1026.755 949,-1006.4017"/>
<polygon fill="#000000" stroke="#000000" points="952.5001,-1006.1481 949,-996.1481 945.5001,-1006.1482 952.5001,-1006.1481"/>
<text text-anchor="middle" x="980.2935" y="-1041.0626" font-family="Times,serif" font-size="14.00" fill="#000000">对准&#45;z方向</text>
</g>
<!-- 路面摄像头检测桥后颜色信标 -->
<g id="node13" class="node">
<title>路面摄像头检测桥后颜色信标</title>
<ellipse fill="none" stroke="#000000" cx="156" cy="-1770.2939" rx="139.8748" ry="18"/>
<text text-anchor="middle" x="156" y="-1766.0939" font-family="Times,serif" font-size="14.00" fill="#000000">路面摄像头检测桥后颜色信标</text>
</g>
<!-- 沿z负方向直行&#45;&gt;路面摄像头检测桥后颜色信标 -->
<g id="edge10" class="edge">
<title>沿z负方向直行&#45;&gt;路面摄像头检测桥后颜色信标</title>
<path fill="none" stroke="#000000" d="M186.3647,-1890.3554C181.673,-1877.1003 175.4511,-1858.6321 171,-1842.0939 167.1611,-1827.8305 163.7216,-1811.7523 161.1076,-1798.432"/>
<polygon fill="#000000" stroke="#000000" points="164.5108,-1797.5936 159.1964,-1788.4281 157.6352,-1798.9072 164.5108,-1797.5936"/>
</g>
<!-- 路面摄像头检测桥后颜色信标&#45;&gt;沿z负方向直行 -->
<g id="edge11" class="edge">
<title>路面摄像头检测桥后颜色信标&#45;&gt;沿z负方向直行</title>
<path fill="none" stroke="#000000" d="M162.3438,-1788.5327C164.2432,-1794.1989 166.2775,-1800.4827 168,-1806.2939 175.3392,-1831.0537 182.1959,-1859.636 186.8652,-1880.2697"/>
<polygon fill="#000000" stroke="#000000" points="183.5036,-1881.2759 189.0985,-1890.273 190.3354,-1879.7506 183.5036,-1881.2759"/>
<text text-anchor="middle" x="202.1073" y="-1829.4939" font-family="Times,serif" font-size="14.00" fill="#000000">未检测到</text>
</g>
<!-- 右转90 -->
<g id="node14" class="node">
<title>右转90</title>
<ellipse fill="none" stroke="#000000" cx="156" cy="-1643.4939" rx="49.2434" ry="18"/>
<text text-anchor="middle" x="156" y="-1639.2939" font-family="Times,serif" font-size="14.00" fill="#000000">右转90</text>
</g>
<!-- 路面摄像头检测桥后颜色信标&#45;&gt;右转90 -->
<g id="edge12" class="edge">
<title>路面摄像头检测桥后颜色信标&#45;&gt;右转90</title>
<path fill="none" stroke="#000000" d="M156,-1752.1265C156,-1731.1291 156,-1696.3199 156,-1671.7729"/>
<polygon fill="#000000" stroke="#000000" points="159.5001,-1671.6275 156,-1661.6275 152.5001,-1671.6275 159.5001,-1671.6275"/>
<text text-anchor="middle" x="173.5" y="-1702.6939" font-family="Times,serif" font-size="14.00" fill="#000000">检测到</text>
</g>
<!-- 检测小车方向与x正方向夹角2 -->
<g id="node15" class="node">
<title>检测小车方向与x正方向夹角2</title>
<ellipse fill="none" stroke="#000000" cx="158" cy="-1436.0939" rx="137.7842" ry="18"/>
<text text-anchor="middle" x="158" y="-1431.8939" font-family="Times,serif" font-size="14.00" fill="#000000">检测小车方向与x正方向夹角2</text>
</g>
<!-- 右转90&#45;&gt;检测小车方向与x正方向夹角2 -->
<g id="edge13" class="edge">
<title>右转90&#45;&gt;检测小车方向与x正方向夹角2</title>
<path fill="none" stroke="#000000" d="M154.9981,-1625.1089C154.6016,-1616.9582 154.1945,-1607.2503 154,-1598.4939 153.321,-1567.9236 153.3471,-1560.2647 154,-1529.6939 154.4674,-1507.8087 155.5489,-1483.0648 156.4696,-1464.5168"/>
<polygon fill="#000000" stroke="#000000" points="159.9726,-1464.546 156.9873,-1454.3804 152.9817,-1464.1889 159.9726,-1464.546"/>
</g>
<!-- 检测小车方向与x正方向夹角2&#45;&gt;检测小车方向与x正方向夹角 -->
<g id="edge32" class="edge">
<title>检测小车方向与x正方向夹角2&#45;&gt;检测小车方向与x正方向夹角</title>
<path fill="none" stroke="#000000" d="M213.1412,-1419.4954C262.8049,-1404.5458 335.8437,-1382.5599 388.2629,-1366.7808"/>
<polygon fill="#000000" stroke="#000000" points="389.5626,-1370.0448 398.1293,-1363.8109 387.5449,-1363.3419 389.5626,-1370.0448"/>
<text text-anchor="middle" x="361.3559" y="-1387.4939" font-family="Times,serif" font-size="14.00" fill="#000000">对准x方向</text>
</g>
<!-- 检测小车方向与x正方向夹角2&#45;&gt;右转90 -->
<g id="edge14" class="edge">
<title>检测小车方向与x正方向夹角2&#45;&gt;右转90</title>
<path fill="none" stroke="#000000" d="M159.0033,-1454.1253C160.565,-1485.3804 163.0939,-1551.6326 160,-1607.4939 159.865,-1609.9308 159.679,-1612.4564 159.4606,-1614.9876"/>
<polygon fill="#000000" stroke="#000000" points="155.9506,-1614.9112 158.4276,-1625.2124 162.9151,-1615.6149 155.9506,-1614.9112"/>
<text text-anchor="middle" x="197.9632" y="-1543.4939" font-family="Times,serif" font-size="14.00" fill="#000000">未对准x方向</text>
</g>
<!-- 路面摄像头识别路 -->
<g id="node17" class="node">
<title>路面摄像头识别路</title>
<ellipse fill="none" stroke="#000000" cx="958" cy="-851.2626" rx="98.6173" ry="18"/>
<text text-anchor="middle" x="958" y="-847.0626" font-family="Times,serif" font-size="14.00" fill="#000000">路面摄像头识别路</text>
</g>
<!-- 沿z负方向直行2&#45;&gt;路面摄像头识别路 -->
<g id="edge15" class="edge">
<title>沿z负方向直行2&#45;&gt;路面摄像头识别路</title>
<path fill="none" stroke="#000000" d="M943.4394,-960.0204C939.6892,-945.4742 935.9373,-924.5081 939,-906.2626 940.5266,-897.1683 943.3802,-887.5667 946.4203,-878.9759"/>
<polygon fill="#000000" stroke="#000000" points="949.7601,-880.0383 950.0066,-869.4463 943.2087,-877.5727 949.7601,-880.0383"/>
</g>
<!-- 路面摄像头识别路&#45;&gt;沿z负方向直行2 -->
<g id="edge16" class="edge">
<title>路面摄像头识别路&#45;&gt;沿z负方向直行2</title>
<path fill="none" stroke="#000000" d="M956.7129,-869.3962C955.2236,-890.3788 952.7531,-925.1861 951.01,-949.7441"/>
<polygon fill="#000000" stroke="#000000" points="947.5064,-949.6725 950.2895,-959.8952 954.4888,-950.1681 947.5064,-949.6725"/>
<text text-anchor="middle" x="971.3869" y="-910.4626" font-family="Times,serif" font-size="14.00" fill="#000000">未巡到</text>
</g>
<!-- 识别路角度并传递给\n底盘组更新速度 -->
<g id="node18" class="node">
<title>识别路角度并传递给\n底盘组更新速度</title>
<ellipse fill="none" stroke="#000000" cx="958" cy="-728.2469" rx="123.985" ry="29.3315"/>
<text text-anchor="middle" x="958" y="-732.4469" font-family="Times,serif" font-size="14.00" fill="#000000">识别路角度并传递给</text>
<text text-anchor="middle" x="958" y="-715.6469" font-family="Times,serif" font-size="14.00" fill="#000000">底盘组更新速度</text>
</g>
<!-- 路面摄像头识别路&#45;&gt;识别路角度并传递给\n底盘组更新速度 -->
<g id="edge33" class="edge">
<title>路面摄像头识别路&#45;&gt;识别路角度并传递给\n底盘组更新速度</title>
<path fill="none" stroke="#000000" d="M958,-833.1112C958,-816.0331 958,-789.8817 958,-767.9675"/>
<polygon fill="#000000" stroke="#000000" points="961.5001,-767.9275 958,-757.9276 954.5001,-767.9276 961.5001,-767.9275"/>
<text text-anchor="middle" x="1000.8848" y="-802.6626" font-family="Times,serif" font-size="14.00" fill="#000000">在过门处巡到</text>
</g>
<!-- 前摄像头识别红/黄/紫色块 -->
<g id="node19" class="node">
<title>前摄像头识别红/黄/紫色块</title>
<ellipse fill="none" stroke="#000000" cx="958" cy="-590.0313" rx="123.893" ry="18"/>
<text text-anchor="middle" x="958" y="-585.8313" font-family="Times,serif" font-size="14.00" fill="#000000">前摄像头识别红/黄/紫色块</text>
</g>
<!-- 识别路角度并传递给\n底盘组更新速度&#45;&gt;前摄像头识别红/黄/紫色块 -->
<g id="edge17" class="edge">
<title>识别路角度并传递给\n底盘组更新速度&#45;&gt;前摄像头识别红/黄/紫色块</title>
<path fill="none" stroke="#000000" d="M955.3601,-698.5986C954.2525,-682.7149 953.3544,-662.8101 954,-645.0313 954.3127,-636.4205 954.8999,-627.0664 955.53,-618.5559"/>
<polygon fill="#000000" stroke="#000000" points="959.038,-618.5903 956.3336,-608.3465 952.0596,-618.041 959.038,-618.5903"/>
</g>
<!-- 前摄像头识别红/黄/紫色块&#45;&gt;识别路角度并传递给\n底盘组更新速度 -->
<g id="edge18" class="edge">
<title>前摄像头识别红/黄/紫色块&#45;&gt;识别路角度并传递给\n底盘组更新速度</title>
<path fill="none" stroke="#000000" d="M958.607,-608.3434C958.7685,-614.0126 958.9201,-620.2796 959,-626.0313 959.3382,-650.3845 959.2568,-656.4771 959,-680.8313 958.9734,-683.3527 958.9389,-685.9494 958.8987,-688.5674"/>
<polygon fill="#000000" stroke="#000000" points="955.3977,-688.5949 958.7203,-698.6552 962.3966,-688.7187 955.3977,-688.5949"/>
<text text-anchor="middle" x="987.7749" y="-649.2313" font-family="Times,serif" font-size="14.00" fill="#000000">未识别到</text>
</g>
<!-- 决策接收Color信号并发给巡路 -->
<g id="node20" class="node">
<title>决策接收Color信号并发给巡路</title>
<ellipse fill="none" stroke="#000000" cx="958" cy="-478.4313" rx="139.1872" ry="18"/>
<text text-anchor="middle" x="958" y="-474.2313" font-family="Times,serif" font-size="14.00" fill="#000000">决策接收Color信号并发给巡路</text>
</g>
<!-- 前摄像头识别红/黄/紫色块&#45;&gt;决策接收Color信号并发给巡路 -->
<g id="edge34" class="edge">
<title>前摄像头识别红/黄/紫色块&#45;&gt;决策接收Color信号并发给巡路</title>
<path fill="none" stroke="#000000" d="M958,-571.6028C958,-553.9703 958,-527.1237 958,-506.7704"/>
<polygon fill="#000000" stroke="#000000" points="961.5001,-506.5168 958,-496.5168 954.5001,-506.5169 961.5001,-506.5168"/>
<text text-anchor="middle" x="980.1676" y="-541.4313" font-family="Times,serif" font-size="14.00" fill="#000000">识别到</text>
</g>
<!-- 路面摄像头识别同色路 -->
<g id="node21" class="node">
<title>路面摄像头识别同色路</title>
<ellipse fill="none" stroke="#000000" cx="958" cy="-367.4313" rx="119.387" ry="18"/>
<text text-anchor="middle" x="958" y="-363.2313" font-family="Times,serif" font-size="14.00" fill="#000000">路面摄像头识别同色路</text>
</g>
<!-- 决策接收Color信号并发给巡路&#45;&gt;路面摄像头识别同色路 -->
<g id="edge19" class="edge">
<title>决策接收Color信号并发给巡路&#45;&gt;路面摄像头识别同色路</title>
<path fill="none" stroke="#000000" d="M958,-460.1019C958,-442.6686 958,-416.1795 958,-395.9802"/>
<polygon fill="#000000" stroke="#000000" points="961.5001,-395.7879 958,-385.7879 954.5001,-395.7879 961.5001,-395.7879"/>
</g>
<!-- 识别路角度并传递给\n底盘更新四轮速度 -->
<g id="node22" class="node">
<title>识别路角度并传递给\n底盘更新四轮速度</title>
<ellipse fill="none" stroke="#000000" cx="958" cy="-245.0156" rx="123.985" ry="29.3315"/>
<text text-anchor="middle" x="958" y="-249.2156" font-family="Times,serif" font-size="14.00" fill="#000000">识别路角度并传递给</text>
<text text-anchor="middle" x="958" y="-232.4156" font-family="Times,serif" font-size="14.00" fill="#000000">底盘更新四轮速度</text>
</g>
<!-- 路面摄像头识别同色路&#45;&gt;识别路角度并传递给\n底盘更新四轮速度 -->
<g id="edge20" class="edge">
<title>路面摄像头识别同色路&#45;&gt;识别路角度并传递给\n底盘更新四轮速度</title>
<path fill="none" stroke="#000000" d="M958,-349.3684C958,-332.4505 958,-306.5851 958,-284.8388"/>
<polygon fill="#000000" stroke="#000000" points="961.5001,-284.5515 958,-274.5515 954.5001,-284.5515 961.5001,-284.5515"/>
</g>
<!-- 是否有路 -->
<g id="node23" class="node">
<title>是否有路</title>
<ellipse fill="none" stroke="#000000" cx="958" cy="-106.8" rx="52.5602" ry="18"/>
<text text-anchor="middle" x="958" y="-102.6" font-family="Times,serif" font-size="14.00" fill="#000000">是否有路</text>
</g>
<!-- 识别路角度并传递给\n底盘更新四轮速度&#45;&gt;是否有路 -->
<g id="edge21" class="edge">
<title>识别路角度并传递给\n底盘更新四轮速度&#45;&gt;是否有路</title>
<path fill="none" stroke="#000000" d="M955.3601,-215.3673C954.2525,-199.4836 953.3544,-179.5788 954,-161.8 954.3127,-153.1892 954.8999,-143.8351 955.53,-135.3246"/>
<polygon fill="#000000" stroke="#000000" points="959.038,-135.359 956.3336,-125.1152 952.0596,-134.8097 959.038,-135.359"/>
</g>
<!-- 是否有路&#45;&gt;识别路角度并传递给\n底盘更新四轮速度 -->
<g id="edge22" class="edge">
<title>是否有路&#45;&gt;识别路角度并传递给\n底盘更新四轮速度</title>
<path fill="none" stroke="#000000" d="M958.607,-125.1121C958.7685,-130.7813 958.9201,-137.0483 959,-142.8 959.3382,-167.1532 959.2568,-173.2458 959,-197.6 958.9734,-200.1214 958.9389,-202.7182 958.8987,-205.3361"/>
<polygon fill="#000000" stroke="#000000" points="955.3977,-205.3636 958.7203,-215.4239 962.3966,-205.4874 955.3977,-205.3636"/>
<text text-anchor="middle" x="966.3913" y="-166" font-family="Times,serif" font-size="14.00" fill="#000000">是</text>
</g>
<!-- 结束stop -->
<g id="node24" class="node">
<title>结束stop</title>
<polygon fill="#ff0000" stroke="transparent" points="989.8354,-36 926.1646,-36 926.1646,0 989.8354,0 989.8354,-36"/>
<text text-anchor="middle" x="958" y="-13.8" font-family="Times,serif" font-size="14.00" fill="#000000">结束stop</text>
</g>
<!-- 是否有路&#45;&gt;结束stop -->
<g id="edge35" class="edge">
<title>是否有路&#45;&gt;结束stop</title>
<path fill="none" stroke="#000000" d="M958,-88.4006C958,-76.2949 958,-60.2076 958,-46.4674"/>
<polygon fill="#000000" stroke="#000000" points="961.5001,-46.072 958,-36.072 954.5001,-46.0721 961.5001,-46.072"/>
<text text-anchor="middle" x="965" y="-58.2" font-family="Times,serif" font-size="14.00" fill="#000000">否</text>
</g>
</g>
</svg>
