<?xml version="1.0" encoding="UTF-8" standalone="no"?>
<!DOCTYPE svg PUBLIC "-//W3C//DTD SVG 1.1//EN"
 "http://www.w3.org/Graphics/SVG/1.1/DTD/svg11.dtd">
<!-- Generated by graphviz version 2.40.1 (20161225.0304)
 -->
<!-- Title: %0 Pages: 1 -->
<svg width="741pt" height="344pt"
 viewBox="0.00 0.00 740.61 344.00" xmlns="http://www.w3.org/2000/svg" xmlns:xlink="http://www.w3.org/1999/xlink">
<g id="graph0" class="graph" transform="scale(1 1) rotate(0) translate(4 340)">
<title>%0</title>
<polygon fill="#ffffff" stroke="transparent" points="-4,4 -4,-340 736.6101,-340 736.6101,4 -4,4"/>
<g id="clust1" class="cluster">
<title>clusterd</title>
<polygon fill="none" stroke="#a020f0" points="8,-20 8,-298 245.144,-298 245.144,-20 8,-20"/>
<text text-anchor="middle" x="126.572" y="-281.4" font-family="Times,serif" font-size="14.00" fill="#a020f0">Decision</text>
<text text-anchor="middle" x="126.572" y="-264.6" font-family="Times,serif" font-size="14.00" fill="#a020f0">by Decision group</text>
</g>
<g id="clust3" class="cluster">
<title>clusterp</title>
<polygon fill="none" stroke="#0000ff" points="409.771,-164 409.771,-328 724.6101,-328 724.6101,-164 409.771,-164"/>
<text text-anchor="middle" x="567.1905" y="-311.4" font-family="Times,serif" font-size="14.00" fill="#0000ff">Perception</text>
<text text-anchor="middle" x="567.1905" y="-294.6" font-family="Times,serif" font-size="14.00" fill="#0000ff">by Visual group</text>
<text text-anchor="middle" x="567.1905" y="-277.8" font-family="Times,serif" font-size="14.00" fill="#0000ff">and Sensors &amp; Peripheral Units group</text>
</g>
<g id="clust4" class="cluster">
<title>clusterc</title>
<polygon fill="none" stroke="#ffa500" points="451.8897,-8 451.8897,-156 682.4913,-156 682.4913,-8 451.8897,-8"/>
<text text-anchor="middle" x="567.1905" y="-139.4" font-family="Times,serif" font-size="14.00" fill="#ffa500">Control</text>
<text text-anchor="middle" x="567.1905" y="-122.6" font-family="Times,serif" font-size="14.00" fill="#ffa500">by Chassis group</text>
</g>
<!-- d0 -->
<g id="node1" class="node">
<title>d0</title>
<ellipse fill="none" stroke="#00ff00" cx="126.572" cy="-219" rx="110.644" ry="29.3315"/>
<text text-anchor="middle" x="126.572" y="-223.2" font-family="Times,serif" font-size="14.00" fill="#000000">split project</text>
<text text-anchor="middle" x="126.572" y="-206.4" font-family="Times,serif" font-size="14.00" fill="#000000">into single function tasks</text>
</g>
<!-- p -->
<g id="node4" class="node">
<title>p</title>
<ellipse fill="none" stroke="#0000ff" cx="567.1905" cy="-244" rx="149.3392" ry="18"/>
<text text-anchor="middle" x="567.1905" y="-239.8" font-family="Times,serif" font-size="14.00" fill="#000000">widely search for possible solutions</text>
</g>
<!-- d0&#45;&gt;p -->
<g id="edge1" class="edge">
<title>d0&#45;&gt;p</title>
<path fill="none" stroke="#000000" d="M222.6209,-233.6938C233.5695,-234.9978 244.5851,-236.1454 255.144,-237 304.5376,-240.9978 358.4621,-243.0327 407.3774,-243.9968"/>
<polygon fill="#000000" stroke="#000000" points="407.3501,-247.4968 417.4128,-244.1811 407.4788,-240.498 407.3501,-247.4968"/>
</g>
<!-- d1 -->
<g id="node2" class="node">
<title>d1</title>
<ellipse fill="none" stroke="#a020f0" cx="126.572" cy="-154" rx="53.2897" ry="18"/>
<text text-anchor="middle" x="126.572" y="-149.8" font-family="Times,serif" font-size="14.00" fill="#000000">make CFG</text>
</g>
<!-- d2 -->
<g id="node3" class="node">
<title>d2</title>
<ellipse fill="none" stroke="#a020f0" cx="126.572" cy="-46" rx="46.3279" ry="18"/>
<text text-anchor="middle" x="126.572" y="-41.8" font-family="Times,serif" font-size="14.00" fill="#000000">edit code</text>
</g>
<!-- d1&#45;&gt;d2 -->
<g id="edge5" class="edge">
<title>d1&#45;&gt;d2</title>
<path fill="none" stroke="#000000" stroke-dasharray="5,2" d="M145.0155,-136.9141C164.2832,-114.9337 166.3416,-92.9534 151.1906,-70.973"/>
<polygon fill="#000000" stroke="#000000" points="144.8301,-62.875 154.5459,-67.9596 147.9185,-66.8071 151.007,-70.7392 151.007,-70.7392 151.007,-70.7392 144.8301,-62.875"/>
</g>
<!-- p2 -->
<g id="node5" class="node">
<title>p2</title>
<ellipse fill="none" stroke="#0000ff" cx="567.1905" cy="-190" rx="69.4825" ry="18"/>
<text text-anchor="middle" x="567.1905" y="-185.8" font-family="Times,serif" font-size="14.00" fill="#000000">exam solutions</text>
</g>
<!-- d1&#45;&gt;p2 -->
<g id="edge3" class="edge">
<title>d1&#45;&gt;p2</title>
<path fill="none" stroke="#000000" stroke-dasharray="5,2" d="M178.4122,-158.2355C255.626,-164.5441 401.3231,-176.4481 490.7711,-183.7563"/>
<polygon fill="#000000" stroke="#000000" points="500.8552,-184.5802 490.5219,-188.2508 495.8718,-184.173 490.8884,-183.7658 490.8884,-183.7658 490.8884,-183.7658 500.8552,-184.5802"/>
<text text-anchor="middle" x="327.4575" y="-180.2" font-family="Times,serif" font-size="14.00" fill="#000000">wanted plan</text>
</g>
<!-- c2 -->
<g id="node7" class="node">
<title>c2</title>
<ellipse fill="none" stroke="#ffa500" cx="567.1905" cy="-34" rx="107.102" ry="18"/>
<text text-anchor="middle" x="567.1905" y="-29.8" font-family="Times,serif" font-size="14.00" fill="#000000">provide interface for RPi</text>
</g>
<!-- d1&#45;&gt;c2 -->
<g id="edge8" class="edge">
<title>d1&#45;&gt;c2</title>
<path fill="none" stroke="#000000" d="M151.0609,-137.6649C176.1347,-121.7254 216.7629,-98.0298 255.144,-85 321.1239,-62.6009 398.3908,-49.8758 459.5304,-42.7382"/>
<polygon fill="#000000" stroke="#000000" points="460.045,-46.2024 469.5867,-41.5974 459.2559,-39.247 460.045,-46.2024"/>
</g>
<!-- d2&#45;&gt;d1 -->
<g id="edge6" class="edge">
<title>d2&#45;&gt;d1</title>
<path fill="none" stroke="#000000" stroke-dasharray="5,2" d="M108.3139,-62.875C88.9361,-84.8553 86.7676,-106.8357 101.8085,-128.816"/>
<polygon fill="#000000" stroke="#000000" points="108.1285,-136.9141 98.4285,-131.7993 105.0522,-132.9724 101.976,-129.0307 101.976,-129.0307 101.976,-129.0307 108.1285,-136.9141"/>
</g>
<!-- p&#45;&gt;d1 -->
<g id="edge2" class="edge">
<title>p:sw&#45;&gt;d1</title>
<path fill="none" stroke="#000000" d="M549.1905,-226C538.2139,-215.0234 425.222,-218.4964 409.771,-217 392.5277,-215.33 269.7251,-206.3546 255.144,-197 248.0859,-192.4719 251.9785,-185.8591 245.144,-181 228.8795,-169.4366 208.4605,-162.7313 189.1724,-158.8732"/>
<polygon fill="#000000" stroke="#000000" points="189.6751,-155.4078 179.217,-157.1045 188.4506,-162.2998 189.6751,-155.4078"/>
<text text-anchor="middle" x="327.4575" y="-220.2" font-family="Times,serif" font-size="14.00" fill="#000000">available plan</text>
</g>
<!-- p2&#45;&gt;d1 -->
<g id="edge4" class="edge">
<title>p2:sw&#45;&gt;d1</title>
<path fill="none" stroke="#000000" stroke-dasharray="5,2" d="M549.1905,-172C527.2019,-150.0113 436.1199,-176.5148 409.771,-160 402.4083,-155.3853 407.3249,-147.4945 399.771,-143.2 343.8913,-111.4319 319.3662,-140.5074 255.144,-143.2 233.1219,-144.1233 209.0339,-145.9324 187.7216,-147.81"/>
<polygon fill="#000000" stroke="#000000" points="177.5034,-148.7336 187.0577,-143.3515 182.4831,-148.2834 187.4628,-147.8333 187.4628,-147.8333 187.4628,-147.8333 177.5034,-148.7336"/>
<text text-anchor="middle" x="327.4575" y="-147.2" font-family="Times,serif" font-size="14.00" fill="#000000">improve</text>
</g>
<!-- c -->
<g id="node6" class="node">
<title>c</title>
<ellipse fill="none" stroke="#00ff00" cx="567.1905" cy="-88" rx="97.2702" ry="18"/>
<text text-anchor="middle" x="567.1905" y="-83.8" font-family="Times,serif" font-size="14.00" fill="#000000">set up the base chassis</text>
</g>
<!-- c&#45;&gt;d1 -->
<g id="edge7" class="edge">
<title>c&#45;&gt;d1</title>
<path fill="none" stroke="#000000" d="M469.9474,-86.8358C407.8944,-87.8435 326.0828,-92.4303 255.144,-107.2 225.0671,-113.4621 192.5646,-125.3417 167.7639,-135.5646"/>
<polygon fill="#000000" stroke="#000000" points="166.1833,-132.4322 158.3183,-139.5311 168.8935,-138.8863 166.1833,-132.4322"/>
<text text-anchor="middle" x="327.4575" y="-111.2" font-family="Times,serif" font-size="14.00" fill="#000000">available control methods</text>
</g>
</g>
</svg>
