<?xml version="1.0" encoding="UTF-8" standalone="no"?>
<!DOCTYPE svg PUBLIC "-//W3C//DTD SVG 1.1//EN"
 "http://www.w3.org/Graphics/SVG/1.1/DTD/svg11.dtd">
<!-- Generated by graphviz version 2.40.1 (20161225.0304)
 -->
<!-- Title: G Pages: 1 -->
<svg width="567pt" height="382pt"
 viewBox="0.00 0.00 566.73 381.80" xmlns="http://www.w3.org/2000/svg" xmlns:xlink="http://www.w3.org/1999/xlink">
<g id="graph0" class="graph" transform="scale(1 1) rotate(0) translate(4 377.8)">
<title>G</title>
<polygon fill="#ffffff" stroke="transparent" points="-4,4 -4,-377.8 562.7329,-377.8 562.7329,4 -4,4"/>
<g id="clust2" class="cluster">
<title>cluster</title>
<polygon fill="none" stroke="#000000" points="78.0323,-184.8 78.0323,-261.6 385.0323,-261.6 385.0323,-184.8 78.0323,-184.8"/>
<text text-anchor="middle" x="231.5323" y="-245" font-family="Times,serif" font-size="14.00" fill="#000000">main_process</text>
</g>
<!-- keyboard input -->
<g id="node1" class="node">
<title>keyboard input</title>
<text text-anchor="middle" x="113.0323" y="-351.6" font-family="Times,serif" font-size="14.00" fill="#000000">keyboard input</text>
</g>
<!-- key -->
<g id="node8" class="node">
<title>key</title>
<polygon fill="#c0c0c0" stroke="transparent" points="140.0323,-228.8 86.0323,-228.8 86.0323,-192.8 140.0323,-192.8 140.0323,-228.8"/>
<text text-anchor="middle" x="113.0323" y="-206.6" font-family="Times,serif" font-size="14.00" fill="#000000">key</text>
</g>
<!-- keyboard input&#45;&gt;key -->
<g id="edge10" class="edge">
<title>keyboard input&#45;&gt;key</title>
<path fill="none" stroke="#000000" d="M113.0323,-337.7288C113.0323,-337.7288 113.0323,-239.0989 113.0323,-239.0989"/>
<polygon fill="#000000" stroke="#000000" points="116.5324,-239.0989 113.0323,-229.0989 109.5324,-239.0989 116.5324,-239.0989"/>
</g>
<!-- webots pause signal -->
<g id="node2" class="node">
<title>webots pause signal</title>
<text text-anchor="middle" x="339.0323" y="-351.6" font-family="Times,serif" font-size="14.00" fill="#000000">webots pause signal</text>
</g>
<!-- flag_pause -->
<g id="node6" class="node">
<title>flag_pause</title>
<polygon fill="#c0c0c0" stroke="transparent" points="377.1727,-228.8 300.8919,-228.8 300.8919,-192.8 377.1727,-192.8 377.1727,-228.8"/>
<text text-anchor="middle" x="339.0323" y="-206.6" font-family="Times,serif" font-size="14.00" fill="#000000">flag_pause</text>
</g>
<!-- webots pause signal&#45;&gt;flag_pause -->
<g id="edge9" class="edge">
<title>webots pause signal&#45;&gt;flag_pause</title>
<path fill="none" stroke="#000000" d="M339.0323,-337.7288C339.0323,-337.7288 339.0323,-239.0989 339.0323,-239.0989"/>
<polygon fill="#000000" stroke="#000000" points="342.5324,-239.0989 339.0323,-229.0989 335.5324,-239.0989 342.5324,-239.0989"/>
</g>
<!-- detector_process -->
<g id="node3" class="node">
<title>detector_process</title>
<polygon fill="none" stroke="#000000" points="110.0969,-36 -.0323,-36 -.0323,0 110.0969,0 110.0969,-36"/>
<text text-anchor="middle" x="55.0323" y="-13.8" font-family="Times,serif" font-size="14.00" fill="#000000">detector_process</text>
</g>
<!-- decider_process -->
<g id="node4" class="node">
<title>decider_process</title>
<polygon fill="none" stroke="#000000" points="317.2064,-36 210.8582,-36 210.8582,0 317.2064,0 317.2064,-36"/>
<text text-anchor="middle" x="264.0323" y="-13.8" font-family="Times,serif" font-size="14.00" fill="#000000">decider_process</text>
</g>
<!-- detector_process&#45;&gt;decider_process -->
<g id="edge1" class="edge">
<title>detector_process&#45;&gt;decider_process</title>
<path fill="none" stroke="#000000" d="M110.218,-12C110.218,-12 200.7049,-12 200.7049,-12"/>
<polygon fill="#000000" stroke="#000000" points="200.705,-15.5001 210.7049,-12 200.7049,-8.5001 200.705,-15.5001"/>
</g>
<!-- controller_process -->
<g id="node5" class="node">
<title>controller_process</title>
<polygon fill="none" stroke="#000000" points="558.9342,-36 439.1304,-36 439.1304,0 558.9342,0 558.9342,-36"/>
<text text-anchor="middle" x="499.0323" y="-13.8" font-family="Times,serif" font-size="14.00" fill="#000000">controller_process</text>
</g>
<!-- decider_process&#45;&gt;controller_process -->
<g id="edge2" class="edge">
<title>decider_process&#45;&gt;controller_process</title>
<path fill="none" stroke="#000000" d="M317.3574,-12C317.3574,-12 429.3045,-12 429.3045,-12"/>
<polygon fill="#000000" stroke="#000000" points="429.3046,-15.5001 439.3045,-12 429.3045,-8.5001 429.3046,-15.5001"/>
</g>
<!-- flag_pause&#45;&gt;detector_process -->
<g id="edge3" class="edge">
<title>flag_pause&#45;&gt;detector_process</title>
<path fill="none" stroke="#000000" stroke-dasharray="5,2" d="M306.1814,-192.5927C306.1814,-164.5521 306.1814,-114 306.1814,-114 306.1814,-114 102.0538,-114 102.0538,-114 102.0538,-114 102.0538,-46.0569 102.0538,-46.0569"/>
<polygon fill="#000000" stroke="#000000" points="105.5539,-46.0568 102.0538,-36.0569 98.5539,-46.0569 105.5539,-46.0568"/>
</g>
<!-- flag_pause&#45;&gt;decider_process -->
<g id="edge5" class="edge">
<title>flag_pause&#45;&gt;decider_process</title>
<path fill="none" stroke="#000000" stroke-dasharray="5,2" d="M311.6504,-182.6618C311.6504,-182.6618 311.6504,-46.2304 311.6504,-46.2304"/>
<polygon fill="#000000" stroke="#000000" points="315.1504,-46.2304 311.6504,-36.2304 308.1504,-46.2304 315.1504,-46.2304"/>
<polygon fill="#000000" stroke="#000000" points="308.1504,-182.6618 311.6504,-192.6618 315.1504,-182.6618 308.1504,-182.6618"/>
<text text-anchor="middle" x="316.0849" y="-94.2" font-family="Times,serif" font-size="14.00" fill="#000000">lock</text>
</g>
<!-- flag_pause&#45;&gt;controller_process -->
<g id="edge4" class="edge">
<title>flag_pause&#45;&gt;controller_process</title>
<path fill="none" stroke="#000000" stroke-dasharray="5,2" d="M347.2357,-192.5487C347.2357,-145.545 347.2357,-24 347.2357,-24 347.2357,-24 429.0383,-24 429.0383,-24"/>
<polygon fill="#000000" stroke="#000000" points="429.0383,-27.5001 439.0383,-24 429.0382,-20.5001 429.0383,-27.5001"/>
</g>
<!-- flag_patio_finished -->
<g id="node7" class="node">
<title>flag_patio_finished</title>
<polygon fill="#c0c0c0" stroke="transparent" points="282.395,-228.8 157.6696,-228.8 157.6696,-192.8 282.395,-192.8 282.395,-228.8"/>
<text text-anchor="middle" x="220.0323" y="-206.6" font-family="Times,serif" font-size="14.00" fill="#000000">flag_patio_finished</text>
</g>
<!-- flag_patio_finished&#45;&gt;decider_process -->
<g id="edge6" class="edge">
<title>flag_patio_finished&#45;&gt;decider_process</title>
<path fill="none" stroke="#000000" stroke-dasharray="5,2" d="M246.7045,-182.6618C246.7045,-182.6618 246.7045,-46.2304 246.7045,-46.2304"/>
<polygon fill="#000000" stroke="#000000" points="250.2045,-46.2304 246.7045,-36.2304 243.2045,-46.2304 250.2045,-46.2304"/>
<polygon fill="#000000" stroke="#000000" points="243.2045,-182.6618 246.7045,-192.6618 250.2045,-182.6618 243.2045,-182.6618"/>
<text text-anchor="middle" x="236.0849" y="-94.2" font-family="Times,serif" font-size="14.00" fill="#000000">lock</text>
</g>
<!-- key&#45;&gt;detector_process -->
<g id="edge7" class="edge">
<title>key&#45;&gt;detector_process</title>
<path fill="none" stroke="#000000" stroke-dasharray="5,2" d="M94.0431,-192.6618C94.0431,-192.6618 94.0431,-46.2304 94.0431,-46.2304"/>
<polygon fill="#000000" stroke="#000000" points="97.5432,-46.2304 94.0431,-36.2304 90.5432,-46.2304 97.5432,-46.2304"/>
</g>
<!-- key&#45;&gt;decider_process -->
<g id="edge8" class="edge">
<title>key&#45;&gt;decider_process</title>
<path fill="none" stroke="#000000" stroke-dasharray="5,2" d="M125.0484,-192.5487C125.0484,-145.545 125.0484,-24 125.0485,-24 125.0485,-24 200.695,-24 200.695,-24"/>
<polygon fill="#000000" stroke="#000000" points="200.695,-27.5001 210.695,-24 200.695,-20.5001 200.695,-27.5001"/>
</g>
</g>
</svg>
